<svg width="19" height="19" viewBox="0 0 19 19" fill="none" xmlns="http://www.w3.org/2000/svg">
<path d="M11.1171 9.00077L17.5632 2.5696C17.8455 2.28732 18.0041 1.90445 18.0041 1.50524C18.0041 1.10603 17.8455 0.723162 17.5632 0.440874C17.2809 0.158587 16.8981 0 16.4989 0C16.0996 0 15.7168 0.158587 15.4345 0.440874L9.00332 6.88703L2.57216 0.440874C2.28988 0.158587 1.90701 -2.97438e-09 1.5078 0C1.10858 2.97438e-09 0.72572 0.158587 0.443433 0.440874C0.161146 0.723162 0.00255838 1.10603 0.00255837 1.50524C0.00255837 1.90445 0.161146 2.28732 0.443433 2.5696L6.88959 9.00077L0.443433 15.4319C0.302924 15.5713 0.1914 15.7371 0.115292 15.9198C0.0391843 16.1025 0 16.2984 0 16.4963C0 16.6942 0.0391843 16.8901 0.115292 17.0728C0.1914 17.2555 0.302924 17.4213 0.443433 17.5607C0.582794 17.7012 0.748597 17.8127 0.931277 17.8888C1.11396 17.9649 1.3099 18.0041 1.5078 18.0041C1.7057 18.0041 1.90164 17.9649 2.08432 17.8888C2.267 17.8127 2.4328 17.7012 2.57216 17.5607L9.00332 11.1145L15.4345 17.5607C15.5738 17.7012 15.7397 17.8127 15.9223 17.8888C16.105 17.9649 16.301 18.0041 16.4989 18.0041C16.6968 18.0041 16.8927 17.9649 17.0754 17.8888C17.2581 17.8127 17.4239 17.7012 17.5632 17.5607C17.7037 17.4213 17.8153 17.2555 17.8914 17.0728C17.9675 16.8901 18.0066 16.6942 18.0066 16.4963C18.0066 16.2984 17.9675 16.1025 17.8914 15.9198C17.8153 15.7371 17.7037 15.5713 17.5632 15.4319L11.1171 9.00077Z" fill="white"/>
</svg>
