<svg width="51" height="50" viewBox="0 0 51 50" fill="none" xmlns="http://www.w3.org/2000/svg">
<path d="M2.96249 26.25C5.00437 14.8722 14.7489 6.25 26.4614 6.25C38.1739 6.25 47.9184 14.8722 49.9625 26.25C47.9206 37.6278 38.1739 46.25 26.4614 46.25C14.7489 46.25 5.00437 37.6278 2.96249 26.25ZM26.4614 37.3611C29.3419 37.3611 32.1045 36.1905 34.1413 34.1067C36.1782 32.023 37.3224 29.1969 37.3224 26.25C37.3224 23.3032 36.1782 20.477 34.1413 18.3933C32.1045 16.3095 29.3419 15.1389 26.4614 15.1389C23.5809 15.1389 20.8183 16.3095 18.7815 18.3933C16.7447 20.477 15.6004 23.3032 15.6004 26.25C15.6004 29.1969 16.7447 32.023 18.7815 34.1067C20.8183 36.1905 23.5809 37.3611 26.4614 37.3611ZM26.4614 32.9167C24.7331 32.9167 23.0756 32.2143 21.8535 30.964C20.6314 29.7138 19.9448 28.0181 19.9448 26.25C19.9448 24.4819 20.6314 22.7862 21.8535 21.536C23.0756 20.2857 24.7331 19.5833 26.4614 19.5833C28.1897 19.5833 29.8472 20.2857 31.0694 21.536C32.2915 22.7862 32.978 24.4819 32.978 26.25C32.978 28.0181 32.2915 29.7138 31.0694 30.964C29.8472 32.2143 28.1897 32.9167 26.4614 32.9167Z" fill="white"/>
</svg>
