<svg width="51" height="50" viewBox="0 0 51 50" fill="none" xmlns="http://www.w3.org/2000/svg">
<path d="M25 3C19.0326 3 13.3097 5.37053 9.0901 9.5901C4.87053 13.8097 2.5 19.5326 2.5 25.5C2.5 31.4674 4.87053 37.1903 9.0901 41.4099C13.3097 45.6295 19.0326 48 25 48C30.9674 48 36.6903 45.6295 40.9099 41.4099C45.1295 37.1903 47.5 31.4674 47.5 25.5C47.5 19.5326 45.1295 13.8097 40.9099 9.5901C36.6903 5.37053 30.9674 3 25 3ZM30.9306 43.8431H30.7562C30.6253 43.8505 30.4942 43.8311 30.371 43.7859C30.2478 43.7408 30.1352 43.6709 30.04 43.5806C29.952 43.4877 29.8835 43.3781 29.8385 43.2583C29.7934 43.1386 29.7727 43.011 29.7775 42.8831V40.2469C29.7887 39.3713 29.7962 38.4844 29.7962 37.5919C29.7932 36.9392 29.6979 36.2903 29.5131 35.6644C29.3381 35.0316 28.9854 34.4623 28.4969 34.0237C29.8037 33.8976 31.0884 33.6007 32.3181 33.1406C33.3554 32.7462 34.2937 32.1292 35.0669 31.3331C35.83 30.5325 36.3981 29.565 36.7262 28.5094C37.1254 27.2166 37.3153 25.8683 37.2887 24.5156C37.2961 23.5711 37.1308 22.6333 36.8013 21.7481C36.4663 20.856 35.9599 20.0381 35.3106 19.3406C35.4508 18.9888 35.5526 18.623 35.6144 18.2494C35.6763 17.8744 35.7081 17.4956 35.7081 17.1169C35.7081 16.6294 35.6519 16.1419 35.5394 15.6675C35.4372 15.1809 35.2987 14.7027 35.125 14.2369C35.0587 14.211 34.988 14.1983 34.9169 14.1994H34.7106C34.2794 14.2031 33.8556 14.2744 33.4469 14.4075C32.9966 14.5389 32.5562 14.7018 32.1287 14.895C31.7037 15.0855 31.2899 15.3003 30.8894 15.5381C30.4862 15.7762 30.13 16.005 29.815 16.2169C26.6607 15.3377 23.3261 15.3377 20.1719 16.2169C19.8201 15.9817 19.4625 15.7554 19.0994 15.5381C18.6932 15.2983 18.2724 15.0841 17.8394 14.8969C17.4131 14.6973 16.971 14.5336 16.5175 14.4075C16.1168 14.2751 15.6982 14.2049 15.2762 14.1994H15.07C14.9995 14.1984 14.9294 14.2111 14.8637 14.2369C14.6876 14.7034 14.5435 15.1814 14.4325 15.6675C14.3312 16.1438 14.2825 16.6294 14.2806 17.1169C14.2806 17.4956 14.3125 17.8744 14.3763 18.2494C14.4381 18.6225 14.5375 18.9881 14.6762 19.3406C14.0286 20.039 13.5241 20.8576 13.1912 21.75C12.8599 22.6348 12.6928 23.5727 12.6981 24.5175C12.6719 25.863 12.8566 27.2042 13.2456 28.4925C13.585 29.5481 14.1512 30.5175 14.9031 31.335C15.6812 32.1263 16.6188 32.7413 17.6519 33.1425C18.8763 33.6112 20.1588 33.9112 21.4638 34.035C21.0994 34.3652 20.8103 34.77 20.6162 35.2219C20.4316 35.6688 20.3056 36.1376 20.2412 36.6169C19.5533 36.9463 18.8009 37.1192 18.0381 37.1231C17.3298 37.1515 16.6307 36.9545 16.0413 36.5606C15.4758 36.1416 14.997 35.6169 14.6312 35.0156C14.4676 34.7631 14.2845 34.5236 14.0837 34.2994C13.872 34.0636 13.6384 33.8483 13.3863 33.6562C13.1377 33.4705 12.8652 33.3192 12.5763 33.2063C12.2919 33.0816 11.9848 33.0171 11.6744 33.0169C11.5994 33.0188 11.5244 33.0262 11.4494 33.0356C11.3469 33.0353 11.2449 33.0479 11.1456 33.0731C11.0584 33.096 10.9759 33.1341 10.9019 33.1856C10.8682 33.2042 10.8401 33.2313 10.8203 33.2642C10.8006 33.2971 10.7899 33.3347 10.7894 33.3731C10.7972 33.4634 10.8248 33.5508 10.8702 33.6292C10.9156 33.7076 10.9776 33.7751 11.0519 33.8269C11.2262 33.9656 11.3706 34.0725 11.4869 34.1475L11.5431 34.1869C11.7925 34.38 12.0325 34.5881 12.2594 34.8112C12.4694 34.995 12.6588 35.2031 12.8219 35.43C12.9906 35.6531 13.1369 35.8913 13.255 36.1444C13.3919 36.3956 13.5363 36.6844 13.6881 37.0125C14.0406 37.9012 14.6669 38.6531 15.4769 39.1594C16.3263 39.615 17.2788 39.8419 18.2444 39.8175C18.5706 39.8175 18.8988 39.7988 19.2231 39.7613C19.5456 39.7088 19.8662 39.6544 20.1887 39.5906V42.8587C20.1946 42.9905 20.1726 43.122 20.1241 43.2447C20.0756 43.3674 20.0018 43.4784 19.9075 43.5706C19.8132 43.6628 19.7005 43.7341 19.5767 43.7798C19.453 43.8254 19.321 43.8445 19.1894 43.8356H19.0731C14.7007 42.4231 10.9762 39.4959 8.57044 35.5811C6.16463 31.6664 5.23556 27.0213 5.95053 22.4823C6.66549 17.9434 8.97751 13.8088 12.4703 10.8232C15.963 7.83754 20.407 6.19701 25.0019 6.19701C29.5968 6.19701 34.0407 7.83754 37.5335 10.8232C41.0262 13.8088 43.3383 17.9434 44.0532 22.4823C44.7682 27.0213 43.8391 31.6664 41.4333 35.5811C39.0275 39.4959 35.3031 42.4231 30.9306 43.8356V43.8431Z" fill="white"/>
</svg>
