<svg width="25" height="25" viewBox="0 0 25 25" fill="none" xmlns="http://www.w3.org/2000/svg">
<path d="M12.4989 7.8833C11.2721 7.8833 10.0954 8.37067 9.22792 9.2382C8.36039 10.1057 7.87302 11.2823 7.87302 12.5092C7.87302 13.7361 8.36039 14.9127 9.22792 15.7802C10.0954 16.6478 11.2721 17.1351 12.4989 17.1351C13.7258 17.1351 14.9024 16.6478 15.7699 15.7802C16.6375 14.9127 17.1248 13.7361 17.1248 12.5092C17.1248 11.2823 16.6375 10.1057 15.7699 9.2382C14.9024 8.37067 13.7258 7.8833 12.4989 7.8833ZM12.4989 15.5135C11.7019 15.5135 10.9375 15.1968 10.3739 14.6332C9.81031 14.0697 9.49369 13.3053 9.49369 12.5082C9.49369 11.7112 9.81031 10.9468 10.3739 10.3832C10.9375 9.81959 11.7019 9.50297 12.4989 9.50297C13.296 9.50297 14.0604 9.81959 14.624 10.3832C15.1876 10.9468 15.5042 11.7112 15.5042 12.5082C15.5042 13.3053 15.1876 14.0697 14.624 14.6332C14.0604 15.1968 13.296 15.5135 12.4989 15.5135Z" fill="white"/>
<path d="M17.3075 8.79077C17.9029 8.79077 18.3855 8.30813 18.3855 7.71277C18.3855 7.1174 17.9029 6.63477 17.3075 6.63477C16.7122 6.63477 16.2295 7.1174 16.2295 7.71277C16.2295 8.30813 16.7122 8.79077 17.3075 8.79077Z" fill="white"/>
<path d="M21.0365 6.61656C20.8049 6.0185 20.451 5.47537 19.9974 5.02196C19.5438 4.56855 19.0006 4.21484 18.4024 3.98347C17.7024 3.72072 16.963 3.57865 16.2155 3.5633C15.2521 3.52128 14.947 3.50928 12.504 3.50928C10.0609 3.50928 9.74782 3.50928 8.79242 3.5633C8.0455 3.57786 7.30656 3.71997 6.60752 3.98347C6.00921 4.21457 5.46581 4.56819 5.01219 5.02163C4.55857 5.47508 4.20475 6.01834 3.97343 6.61656C3.71062 7.31647 3.56887 8.056 3.55425 8.80347C3.51124 9.76587 3.49823 10.071 3.49823 12.515C3.49823 14.958 3.49823 15.2691 3.55425 16.2265C3.56926 16.9748 3.71032 17.7132 3.97343 18.4144C4.2054 19.0125 4.55957 19.5555 5.01329 20.0089C5.46702 20.4623 6.01033 20.816 6.60852 21.0475C7.30624 21.3208 8.04548 21.4731 8.79442 21.4977C9.75782 21.5397 10.0629 21.5527 12.506 21.5527C14.949 21.5527 15.2621 21.5527 16.2175 21.4977C16.9649 21.4825 17.7043 21.3408 18.4044 21.0785C19.0024 20.8466 19.5455 20.4926 19.999 20.0391C20.4526 19.5856 20.8066 19.0425 21.0385 18.4445C21.3016 17.7442 21.4427 17.0059 21.4577 16.2576C21.5007 15.2952 21.5137 14.99 21.5137 12.546C21.5137 10.102 21.5137 9.79188 21.4577 8.83448C21.446 8.07644 21.3035 7.32611 21.0365 6.61656ZM19.818 16.1525C19.8115 16.7291 19.7063 17.3002 19.5069 17.8412C19.3566 18.2302 19.1266 18.5835 18.8316 18.8783C18.5367 19.1731 18.1833 19.4029 17.7941 19.5529C17.2592 19.7514 16.6941 19.8567 16.1235 19.864C15.1731 19.9081 14.905 19.9191 12.4679 19.9191C10.0289 19.9191 9.77983 19.9191 8.81143 19.864C8.24112 19.8571 7.67628 19.7518 7.14174 19.5529C6.75126 19.4038 6.39643 19.1745 6.1002 18.8796C5.80396 18.5847 5.57292 18.231 5.42203 17.8412C5.22539 17.306 5.12021 16.7416 5.1109 16.1715C5.06788 15.2211 5.05788 14.953 5.05788 12.516C5.05788 10.078 5.05788 9.82889 5.1109 8.85949C5.11736 8.28328 5.2226 7.71244 5.42203 7.17179C5.72715 6.38247 6.35241 5.76121 7.14174 5.45908C7.67655 5.26114 8.24122 5.15592 8.81143 5.14796C9.76282 5.10494 10.0299 5.09293 12.4679 5.09293C14.906 5.09293 15.1561 5.09293 16.1235 5.14796C16.6941 5.15482 17.2593 5.26007 17.7941 5.45908C18.1832 5.60942 18.5366 5.83944 18.8315 6.13439C19.1265 6.42934 19.3565 6.7827 19.5069 7.17179C19.7035 7.70696 19.8087 8.27141 19.818 8.84148C19.861 9.79288 19.872 10.06 19.872 12.498C19.872 14.935 19.872 15.1971 19.829 16.1535H19.818V16.1525Z" fill="white"/>
</svg>
