<svg width="25" height="25" viewBox="0 0 25 25" fill="none" xmlns="http://www.w3.org/2000/svg">
<path d="M15.1306 9.48499C14.6232 9.48499 14.2475 9.61297 13.9534 9.77462C13.9062 9.60698 13.7513 9.48424 13.5687 9.52091H11.3354C11.1147 9.48424 10.9358 9.66311 11.0039 9.89512V18.1276C10.9358 18.3372 11.1147 18.5168 11.3354 18.5018H13.5687C13.7895 18.5168 13.9683 18.3372 13.9683 18.1164L13.9676 13.141C13.9669 13.1387 13.9586 12.9007 14.1091 12.7368C14.2295 12.6066 14.4369 12.54 14.7235 12.54C15.201 12.54 15.4135 12.7353 15.4929 13.1724V18.1164C15.4143 18.3372 15.5931 18.5168 15.8139 18.5018H18.1677C18.3885 18.5168 18.5673 18.3372 18.488 18.1164V13.0063C18.5666 10.4078 16.7158 9.48499 15.1306 9.48499ZM17.7673 17.7534H16.2136V13.1724C16.2136 12.2885 15.6425 11.7407 14.7242 11.7407C14.2048 11.7407 13.8007 11.8934 13.5223 12.1942C13.1354 12.6133 13.1653 13.1447 13.2484 13.263V17.7534H11.7351V10.2843H13.169V10.5358C13.1685 10.6107 13.189 10.6842 13.2284 10.748C13.2677 10.8117 13.3242 10.8631 13.3915 10.8961C13.4587 10.9292 13.5339 10.9426 13.6084 10.9349C13.6829 10.9271 13.7537 10.8985 13.8127 10.8523L13.9175 10.7715C14.2206 10.5328 14.5341 10.285 15.1314 10.285C15.7496 10.285 17.768 10.4819 17.768 13.007L17.7673 17.7534ZM8.75792 5.75342C7.91821 5.75342 7.23566 6.43597 7.23566 7.27568C7.23566 8.1154 7.91821 8.79795 8.75792 8.79795C9.59764 8.79795 10.2802 8.1154 10.2802 7.27568C10.2802 6.43597 9.59764 5.75342 8.75792 5.75342ZM8.75792 7.99865C8.35977 7.99865 8.03496 7.67384 8.03496 7.27568C8.03496 6.87753 8.35977 6.55272 8.75792 6.55272C9.15608 6.55272 9.48089 6.87753 9.48089 7.27568C9.48089 7.67384 9.15608 7.99865 8.75792 7.99865ZM9.82665 9.48424H7.60537C7.38459 9.48424 7.20572 9.66311 7.2611 9.89512V18.1276C7.20572 18.3372 7.38459 18.5168 7.60537 18.5018H9.82665C10.0474 18.5168 10.2263 18.3372 10.2263 18.1164V9.88389C10.2263 9.7779 10.1842 9.67624 10.1092 9.60129C10.0343 9.52635 9.93265 9.48424 9.82665 9.48424ZM9.50633 17.7534H8.00502V10.2843H9.50633V17.7534Z" fill="white"/>
<path d="M12.5 0.514648C5.88253 0.514648 0.499969 5.89721 0.499969 12.5146C0.499969 19.1321 5.88253 24.5146 12.5 24.5146C19.1174 24.5146 24.5 19.1321 24.5 12.5146C24.5 5.89721 19.1174 0.514648 12.5 0.514648ZM12.5 23.7153C6.32409 23.7153 1.29927 18.6905 1.29927 12.5146C1.29927 6.33877 6.32409 1.31395 12.5 1.31395C18.6758 1.31395 23.7007 6.33877 23.7007 12.5146C23.7007 18.6905 18.6758 23.7153 12.5 23.7153Z" fill="white"/>
</svg>
