<svg width="25" height="25" viewBox="0 0 25 25" fill="none" xmlns="http://www.w3.org/2000/svg">
<path fill-rule="evenodd" clip-rule="evenodd" d="M18.9056 6.14193C18.0736 5.30447 17.0837 4.64043 15.9933 4.18827C14.9028 3.73612 13.7335 3.50484 12.553 3.50784C7.60295 3.50784 3.57328 7.53651 3.57128 12.4886C3.57128 14.0712 3.98445 15.6159 4.76977 16.9784L3.49625 21.6313L8.25722 20.3818C9.57416 21.0987 11.0496 21.4746 12.549 21.4753H12.553C17.502 21.4753 21.5317 17.4466 21.5337 12.4946C21.5371 11.3146 21.3066 10.1456 20.8555 9.0552C20.4044 7.96481 19.7417 6.97465 18.9056 6.14193ZM12.553 19.9597H12.55C11.213 19.9598 9.90053 19.6001 8.75042 18.9182L8.47831 18.7562L5.65314 19.4975L6.40645 16.7433L6.22938 16.4612C5.48186 15.2711 5.08614 13.8939 5.08791 12.4886C5.08991 8.37285 8.43829 5.02447 12.556 5.02447C13.5367 5.02229 14.508 5.21463 15.4138 5.59035C16.3197 5.96608 17.142 6.51773 17.8332 7.21337C18.5281 7.9057 19.0789 8.7289 19.4537 9.63538C19.8286 10.5419 20.0201 11.5136 20.0171 12.4946C20.0151 16.6103 16.6667 19.9597 12.553 19.9597ZM16.6477 14.3683C16.4226 14.2553 15.3201 13.7131 15.1141 13.638C14.909 13.563 14.7599 13.526 14.6098 13.7501C14.4598 13.9742 14.0296 14.4794 13.8986 14.6294C13.7675 14.7795 13.6364 14.7975 13.4124 14.6855C13.1883 14.5734 12.465 14.3363 11.6076 13.572C10.9403 12.9768 10.4901 12.2425 10.3591 12.0174C10.228 11.7923 10.3451 11.6712 10.4581 11.5592C10.5592 11.4591 10.6822 11.2971 10.7943 11.166C10.9063 11.035 10.9433 10.9419 11.0184 10.7919C11.0934 10.6418 11.0564 10.5107 10.9994 10.3987C10.9433 10.2856 10.4941 9.18119 10.3071 8.732C10.126 8.29682 9.94092 8.35485 9.80286 8.34884C9.65988 8.343 9.51678 8.34033 9.37368 8.34084C9.25989 8.34374 9.14792 8.37012 9.04481 8.41832C8.94169 8.46652 8.84964 8.53551 8.77443 8.62096C8.56835 8.84605 7.98911 9.38828 7.98911 10.4927C7.98911 11.5972 8.79344 12.6646 8.90549 12.8147C9.01753 12.9648 10.4881 15.2307 12.7391 16.2031C13.2753 16.4342 13.6935 16.5722 14.0186 16.6763C14.5558 16.8474 15.045 16.8224 15.4322 16.7653C15.8634 16.7013 16.7597 16.2231 16.9468 15.6989C17.1339 15.1747 17.1339 14.7255 17.0779 14.6314C17.0218 14.5374 16.8708 14.4804 16.6477 14.3683Z" fill="white"/>
</svg>
