<svg width="72" height="72" viewBox="0 0 72 72" fill="none" xmlns="http://www.w3.org/2000/svg">
<g clip-path="url(#clip0_10_232)">
<path d="M55.7021 24.6638C57.9095 23.0082 59.54 20.7001 60.3628 18.0664C61.1855 15.4327 61.1587 12.6069 60.2861 9.98924C59.4136 7.37161 57.7395 5.09486 55.5011 3.48151C53.2627 1.86816 50.5734 1 47.8142 1H24.1504C21.3912 1 18.7019 1.86816 16.4635 3.48151C14.2251 5.09486 12.5511 7.37161 11.6785 9.98924C10.806 12.6069 10.7792 15.4327 11.6019 18.0664C12.4246 20.7001 14.0551 23.0082 16.2625 24.6638C14.5912 25.9163 13.2423 27.549 12.3277 29.4267C11.413 31.3043 10.9589 33.3728 11.0029 35.461C11.0469 37.5491 11.5878 39.5966 12.5808 41.4341C13.5737 43.2715 14.9902 44.8459 16.7128 46.0269C14.7534 47.5166 13.2067 49.4817 12.2191 51.7363C11.2314 53.9908 10.8356 56.4601 11.0691 58.9104C11.3025 61.3607 12.1575 63.7108 13.5531 65.7383C14.9487 67.7657 16.8387 69.4034 19.0441 70.4963C21.2495 71.5892 23.6974 72.1011 26.156 71.9835C28.6145 71.8659 31.0024 71.1227 33.0934 69.8243C35.1845 68.526 36.9095 66.7153 38.1052 64.5639C39.301 62.4125 39.9277 59.9915 39.9263 57.5301V45.6983C41.3074 46.7341 42.8791 47.4878 44.5515 47.9163C46.2239 48.3447 47.9643 48.4396 49.6734 48.1954C51.3825 47.9513 53.0267 47.3729 54.5123 46.4933C55.9978 45.6137 57.2956 44.4501 58.3314 43.0689C59.3673 41.6878 60.121 40.1162 60.5494 38.4437C60.9779 36.7713 61.0728 35.0309 60.8286 33.3218C60.5845 31.6127 60.0061 29.9685 59.1265 28.4829C58.2469 26.9974 57.0833 25.6996 55.7021 24.6638ZM55.7021 14.1465C55.7021 16.2386 54.8711 18.2449 53.3918 19.7242C51.9125 21.2034 49.9062 22.0345 47.8142 22.0345H39.9263V6.25862H47.8142C49.9062 6.25862 51.9125 7.08967 53.3918 8.56894C54.8711 10.0482 55.7021 12.0545 55.7021 14.1465ZM16.2625 14.1465C16.2625 12.0545 17.0935 10.0482 18.5728 8.56894C20.0521 7.08967 22.0584 6.25862 24.1504 6.25862H34.6677V22.0345H24.1504C22.0584 22.0345 20.0521 21.2034 18.5728 19.7242C17.0935 18.2449 16.2625 16.2386 16.2625 14.1465ZM24.1504 43.0689C22.0584 43.0689 20.0521 42.2379 18.5728 40.7586C17.0935 39.2794 16.2625 37.273 16.2625 35.181C16.2625 33.089 17.0935 31.0827 18.5728 29.6034C20.0521 28.1241 22.0584 27.2931 24.1504 27.2931H34.6677V43.0689H24.1504ZM34.6677 57.5301C34.6677 59.3502 34.1279 61.1295 33.1167 62.6428C32.1056 64.1562 30.6683 65.3357 28.9868 66.0322C27.3052 66.7287 25.4549 66.911 23.6697 66.5559C21.8846 66.2008 20.2449 65.3244 18.9579 64.0374C17.6709 62.7504 16.7944 61.1106 16.4393 59.3255C16.0842 57.5404 16.2665 55.69 16.963 54.0085C17.6595 52.3269 18.839 50.8897 20.3524 49.8785C21.8658 48.8673 23.645 48.3276 25.4651 48.3276H34.6677V57.5301ZM47.8142 43.0689C46.2541 43.0689 44.7291 42.6063 43.4319 41.7396C42.1347 40.8729 41.1237 39.6409 40.5267 38.1996C39.9297 36.7583 39.7735 35.1723 40.0778 33.6422C40.3822 32.1121 41.1335 30.7066 42.2366 29.6034C43.3397 28.5003 44.7452 27.749 46.2753 27.4447C47.8055 27.1403 49.3915 27.2965 50.8328 27.8935C52.2741 28.4905 53.506 29.5016 54.3728 30.7987C55.2395 32.0959 55.7021 33.6209 55.7021 35.181C55.7021 37.273 54.8711 39.2794 53.3918 40.7586C51.9125 42.2379 49.9062 43.0689 47.8142 43.0689Z" fill="url(#paint0_linear_10_232)"/>
</g>
<defs>
<linearGradient id="paint0_linear_10_232" x1="35.9804" y1="1" x2="35.9804" y2="72" gradientUnits="userSpaceOnUse">
<stop stop-color="#21A2DC"/>
<stop offset="1" stop-color="#B221E3"/>
</linearGradient>
<clipPath id="clip0_10_232">
<rect width="71" height="71" fill="white" transform="translate(0.5 0.5)"/>
</clipPath>
</defs>
</svg>
