<svg width="72" height="72" viewBox="0 0 72 72" fill="none" xmlns="http://www.w3.org/2000/svg">
<path d="M41.2619 51.9947L37.8776 56.6807C41.0883 59.5444 45.0801 60.9762 49.8529 60.9762C53.4976 60.8894 56.2744 59.9507 58.1836 58.1559C60.1242 56.3336 61.0906 54.1642 61.0906 51.6476C61.0906 49.1902 60.4122 47.1628 59.0513 45.5732C57.6944 43.9836 55.4067 42.7095 52.1959 41.7549C49.5373 40.9463 47.6598 40.2087 46.5553 39.5421C45.4588 38.8479 44.9066 38.0077 44.9066 37.0256C44.9066 36.1302 45.3562 35.4083 46.2516 34.8561C47.1509 34.3039 48.3501 34.0317 49.8529 34.0317C50.9573 34.0317 52.1959 34.2487 53.5843 34.6826C54.9728 35.0573 56.2034 35.6687 57.2724 36.5049L60.3096 31.7755C57.6511 29.6337 54.1208 28.5647 49.7227 28.5647C46.5711 28.5647 43.9836 29.3733 41.9561 30.9945C39.8734 32.6117 38.8321 34.6234 38.8321 37.0256C38.8637 39.5697 39.6999 41.5538 41.3487 42.9698C43.029 44.3898 45.4114 45.5456 48.5078 46.4409C51.0836 47.2496 52.8349 48.0582 53.7579 48.8707C54.1842 49.2342 54.5257 49.6868 54.7581 50.1966C54.9905 50.7064 55.1082 51.2609 55.1029 51.8212C55.1245 52.3342 55.0123 52.844 54.7771 53.3004C54.542 53.7569 54.1921 54.1443 53.7618 54.4245C52.8349 55.0596 51.5017 55.3791 49.7661 55.3791C46.934 55.4067 44.0979 54.2786 41.2619 51.9947ZM19.4491 54.5113C18.4964 53.9112 17.6709 53.1299 17.0193 52.2117L12.9408 55.5526C14.1557 57.6037 15.6624 59.0395 17.4532 59.8481C19.1296 60.5976 21.0545 60.9762 23.2239 60.9762C24.4073 60.9762 25.6379 60.7869 26.912 60.4122C28.2034 60.0268 29.4003 59.3766 30.4265 58.5031C32.308 57.0002 33.2902 54.5389 33.3769 51.1269V29.0854H27.5194V49.9988C27.5194 51.9947 27.0698 53.3989 26.1783 54.2076C25.279 54.9886 24.1509 55.3791 22.7901 55.3791C21.4884 55.3791 20.3761 55.0911 19.4491 54.5113ZM0.5 12.3333C0.5 9.19494 1.74672 6.18508 3.9659 3.9659C6.18508 1.74672 9.19494 0.5 12.3333 0.5H59.6667C62.8051 0.5 65.8149 1.74672 68.0341 3.9659C70.2533 6.18508 71.5 9.19494 71.5 12.3333V59.6667C71.5 62.8051 70.2533 65.8149 68.0341 68.0341C65.8149 70.2533 62.8051 71.5 59.6667 71.5H12.3333C9.19494 71.5 6.18508 70.2533 3.9659 68.0341C1.74672 65.8149 0.5 62.8051 0.5 59.6667V12.3333ZM12.3333 8.38889C11.2872 8.38889 10.2839 8.80446 9.54419 9.54419C8.80446 10.2839 8.38889 11.2872 8.38889 12.3333V59.6667C8.38889 60.7128 8.80446 61.7161 9.54419 62.4558C10.2839 63.1955 11.2872 63.6111 12.3333 63.6111H59.6667C60.7128 63.6111 61.7161 63.1955 62.4558 62.4558C63.1955 61.7161 63.6111 60.7128 63.6111 59.6667V12.3333C63.6111 11.2872 63.1955 10.2839 62.4558 9.54419C61.7161 8.80446 60.7128 8.38889 59.6667 8.38889H12.3333Z" fill="url(#paint0_linear_10_202)"/>
<defs>
<linearGradient id="paint0_linear_10_202" x1="36" y1="0.5" x2="36" y2="71.5" gradientUnits="userSpaceOnUse">
<stop stop-color="#21A2DC"/>
<stop offset="1" stop-color="#B221E3"/>
</linearGradient>
</defs>
</svg>
