<svg width="72" height="72" viewBox="0 0 72 72" fill="none" xmlns="http://www.w3.org/2000/svg">
<path d="M9.96667 17.4027L9.2188 15.1591C8.65271 15.3477 8.17871 15.7431 7.89171 16.2662C7.6047 16.7893 7.52587 17.4015 7.671 17.9802L9.96667 17.398V17.4027ZM21.1231 13.6871L23.2389 12.6268C22.9836 12.1182 22.5536 11.7187 22.0277 11.5013C21.5017 11.284 20.9151 11.2635 20.3753 11.4435L21.1231 13.6871ZM43.4361 58.3129L41.3203 59.3732C41.4661 59.6652 41.6708 59.9238 41.9214 60.1329C42.1721 60.3419 42.4632 60.4969 42.7766 60.588C43.09 60.6791 43.4188 60.7045 43.7425 60.6624C44.0661 60.6203 44.3776 60.5117 44.6573 60.3435L43.4361 58.3129ZM62.0333 47.1565L63.2498 49.1871C63.5208 49.0246 63.7566 48.8096 63.9432 48.5545C64.1298 48.2995 64.2634 48.0097 64.3362 47.7022C64.409 47.3947 64.4195 47.0758 64.367 46.7642C64.3146 46.4526 64.2002 46.1546 64.0308 45.8879L62.0333 47.1565ZM49.0167 26.7037L48.4439 24.4081C48.0807 24.4995 47.7444 24.6758 47.4626 24.9225C47.1808 25.1692 46.9616 25.4793 46.8229 25.8272C46.6843 26.1752 46.6303 26.551 46.6652 26.9239C46.7001 27.2968 46.8231 27.6561 47.0239 27.9723L49.0167 26.7037ZM56.4527 24.8435L58.3461 23.4235C58.067 23.0521 57.6849 22.771 57.2472 22.6153C56.8095 22.4596 56.3357 22.4361 55.8847 22.5479L56.4527 24.8435ZM62.0333 32.2796L62.7812 34.5279C63.1375 34.4096 63.4605 34.2081 63.7236 33.9403C63.9867 33.6724 64.1823 33.3458 64.2942 32.9874C64.4061 32.629 64.4311 32.2491 64.3672 31.8791C64.3033 31.5091 64.1523 31.1597 63.9267 30.8596L62.0333 32.2796ZM17.4027 47.1565L15.1071 47.7292C15.1856 48.0464 15.329 48.3439 15.5281 48.6029C15.7273 48.862 15.978 49.077 16.2643 49.2344C16.5507 49.3918 16.8665 49.4882 17.192 49.5176C17.5174 49.5469 17.8454 49.5085 18.1553 49.4048L17.4027 47.1565ZM10.7145 19.6511L21.871 15.9307L20.3753 11.4435L9.2188 15.1591L10.7145 19.6511ZM19.0073 14.7426L32.8192 42.3711L37.0555 40.2553L23.2389 12.6268L19.0073 14.7426ZM32.8192 42.3711L41.3203 59.3732L45.5566 57.2574L37.0555 40.2553L32.8192 42.3711ZM44.6525 60.3435L63.2545 49.1871L60.8169 45.1259L42.2196 56.2871L44.6573 60.3435H44.6525ZM64.0308 45.8879L56.2208 33.6144L52.2259 36.1562L60.0359 48.4297L64.0308 45.8879ZM56.2208 33.6144L51.0141 25.4305L47.0192 27.9723L52.2259 36.1562L56.2208 33.6144ZM49.5941 28.9994L57.0255 27.1392L55.88 22.5479L48.4439 24.4081L49.5941 28.9994ZM54.5641 26.2635L60.14 33.6996L63.9267 30.8596L58.3461 23.4235L54.5594 26.2635H54.5641ZM61.2855 30.036L53.4755 32.6393L54.9712 37.1313L62.7812 34.5279L61.2855 30.036ZM53.4755 32.6393L34.1871 39.0672L35.6876 43.5591L54.9712 37.1313L53.4755 32.6393ZM34.1871 39.0672L16.6549 44.9129L18.1553 49.4048L35.6876 43.5591L34.1871 39.0672ZM19.7031 46.5837L12.2576 16.83L7.671 17.9802L15.1071 47.7292L19.6937 46.5837H19.7031ZM12.3333 5.23333H59.6667V0.5H12.3333V5.23333ZM66.7667 12.3333V59.6667H71.5V12.3333H66.7667ZM59.6667 66.7667H12.3333V71.5H59.6667V66.7667ZM5.23333 59.6667V12.3333H0.5V59.6667H5.23333ZM12.3333 66.7667C10.4503 66.7667 8.64438 66.0186 7.31288 64.6871C5.98137 63.3556 5.23333 61.5497 5.23333 59.6667H0.5C0.5 62.8051 1.74672 65.8149 3.9659 68.0341C6.18508 70.2533 9.19494 71.5 12.3333 71.5V66.7667ZM66.7667 59.6667C66.7667 61.5497 66.0186 63.3556 64.6871 64.6871C63.3556 66.0186 61.5497 66.7667 59.6667 66.7667V71.5C62.8051 71.5 65.8149 70.2533 68.0341 68.0341C70.2533 65.8149 71.5 62.8051 71.5 59.6667H66.7667ZM59.6667 5.23333C61.5497 5.23333 63.3556 5.98137 64.6871 7.31288C66.0186 8.64438 66.7667 10.4503 66.7667 12.3333H71.5C71.5 9.19494 70.2533 6.18508 68.0341 3.9659C65.8149 1.74672 62.8051 0.5 59.6667 0.5V5.23333ZM12.3333 0.5C9.19494 0.5 6.18508 1.74672 3.9659 3.9659C1.74672 6.18508 0.5 9.19494 0.5 12.3333H5.23333C5.23333 10.4503 5.98137 8.64438 7.31288 7.31288C8.64438 5.98137 10.4503 5.23333 12.3333 5.23333V0.5Z" fill="url(#paint0_linear_10_224)"/>
<defs>
<linearGradient id="paint0_linear_10_224" x1="36" y1="0.5" x2="36" y2="71.5" gradientUnits="userSpaceOnUse">
<stop stop-color="#21A2DC"/>
<stop offset="1" stop-color="#B221E3"/>
</linearGradient>
</defs>
</svg>
