<svg width="71" height="72" viewBox="0 0 71 72" fill="none" xmlns="http://www.w3.org/2000/svg">
<g clip-path="url(#clip0_10_236)">
<path d="M35.497 0.5C28.8408 0.5 22.1845 0.6775 15.972 1.12125C12.029 1.37742 8.30938 3.04194 5.49105 5.81139C2.67272 8.58085 0.943396 12.2708 0.618295 16.2087C-0.0917053 25.705 -0.180455 35.1125 0.440795 44.6087C0.781005 48.829 2.7118 52.7624 5.84243 55.6129C8.97307 58.4635 13.0697 60.0182 17.3033 59.9625H26.622V48.425H17.3033C14.552 48.5138 12.1558 46.5612 11.8895 43.81C11.357 34.935 11.4458 26.06 12.067 17.185C12.2445 14.7 14.197 12.8363 16.682 12.6588C22.717 12.215 29.107 12.0375 35.497 12.0375C41.887 12.0375 48.277 12.3037 54.312 12.57C56.7083 12.7475 58.7495 14.6112 58.9271 17.0963C59.6371 25.9713 59.6371 34.8462 59.1045 43.7212C58.7495 46.4725 56.4421 48.5138 53.6908 48.425H44.372L26.622 59.9625V71.5L44.372 59.9625H53.6908C62.4771 60.0513 69.8433 53.3062 70.5533 44.6087C71.1746 35.2012 71.0858 25.705 70.4646 16.2975C70.1395 12.3596 68.4101 8.6696 65.5918 5.90014C62.7735 3.13069 59.0538 1.46617 55.1108 1.21C48.8095 0.6775 42.1533 0.5 35.497 0.5ZM20.587 26.415C19.522 26.415 18.6345 27.3025 18.6345 28.3675V35.29C18.6345 36.2663 19.167 37.1537 20.0545 37.5975C24.847 39.905 30.172 41.1475 35.497 41.325C40.822 41.1475 46.147 39.905 50.9395 37.5975C51.827 37.1537 52.3595 36.2663 52.3595 35.29V28.3675C52.3595 28.1012 52.2708 27.9237 52.0933 27.7463C52.0002 27.5027 51.8584 27.2808 51.6765 27.0939C51.4947 26.9071 51.2766 26.7593 51.0357 26.6596C50.7948 26.5599 50.5361 26.5104 50.2754 26.5142C50.0147 26.5179 49.7575 26.5747 49.5196 26.6812C45.0821 28.6338 40.2895 29.6987 35.4083 29.7875C30.527 29.6987 25.7345 28.545 21.297 26.5925C21.0764 26.4817 20.8339 26.4211 20.587 26.415Z" fill="url(#paint0_linear_10_236)"/>
</g>
<defs>
<linearGradient id="paint0_linear_10_236" x1="35.5013" y1="0.5" x2="35.5013" y2="71.5" gradientUnits="userSpaceOnUse">
<stop stop-color="#21A2DC"/>
<stop offset="1" stop-color="#B221E3"/>
</linearGradient>
<clipPath id="clip0_10_236">
<rect width="71" height="71" fill="white" transform="translate(0 0.5)"/>
</clipPath>
</defs>
</svg>
