<svg width="72" height="72" viewBox="0 0 72 72" fill="none" xmlns="http://www.w3.org/2000/svg">
<path d="M21.8 21.8L23.717 20.4131C23.4238 20.0081 23.0098 19.7064 22.5344 19.5512C22.059 19.396 21.5468 19.3954 21.071 19.5494C20.5953 19.7034 20.1806 20.0042 19.8864 20.4085C19.5921 20.8128 19.4335 21.3 19.4333 21.8H21.8ZM36 66.7667C27.8402 66.7667 20.0145 63.5252 14.2447 57.7553C8.47481 51.9854 5.23333 44.1598 5.23333 36H0.5C0.5 45.4152 4.24017 54.4447 10.8977 61.1023C17.5553 67.7598 26.5848 71.5 36 71.5V66.7667ZM66.7667 36C66.7667 40.0403 65.9709 44.0411 64.4247 47.7739C62.8785 51.5067 60.6123 54.8984 57.7553 57.7553C54.8984 60.6123 51.5067 62.8785 47.7739 64.4247C44.0411 65.9709 40.0403 66.7667 36 66.7667V71.5C45.4152 71.5 54.4447 67.7598 61.1023 61.1023C67.7598 54.4447 71.5 45.4152 71.5 36H66.7667ZM36 5.23333C40.0403 5.23333 44.0411 6.02914 47.7739 7.57531C51.5067 9.12148 54.8984 11.3877 57.7553 14.2447C60.6123 17.1016 62.8785 20.4933 64.4247 24.2261C65.9709 27.9589 66.7667 31.9597 66.7667 36H71.5C71.5 26.5848 67.7598 17.5553 61.1023 10.8977C54.4447 4.24017 45.4152 0.5 36 0.5V5.23333ZM36 0.5C26.5848 0.5 17.5553 4.24017 10.8977 10.8977C4.24017 17.5553 0.5 26.5848 0.5 36H5.23333C5.23333 27.8402 8.47481 20.0145 14.2447 14.2447C20.0145 8.47481 27.8402 5.23333 36 5.23333V0.5ZM24.1667 57.3V21.8H19.4333V57.3H24.1667ZM19.883 23.1869L50.6497 65.7869L54.4837 63.0131L23.717 20.4131L19.883 23.1869ZM47.8333 19.4333V47.8333H52.5667V19.4333H47.8333Z" fill="url(#paint0_linear_10_212)"/>
<defs>
<linearGradient id="paint0_linear_10_212" x1="36" y1="0.5" x2="36" y2="71.5" gradientUnits="userSpaceOnUse">
<stop stop-color="#21A2DC"/>
<stop offset="1" stop-color="#B221E3"/>
</linearGradient>
</defs>
</svg>
