<svg width="71" height="72" viewBox="0 0 71 72" fill="none" xmlns="http://www.w3.org/2000/svg">
<path d="M58.0539 24.4267C57.309 24.168 56.5577 23.9284 55.8008 23.7081C55.928 23.1824 56.045 22.663 56.1489 22.1528C57.8546 13.7742 56.7395 7.02423 52.9308 4.80181C49.2791 2.67126 43.3069 4.89285 37.2754 10.2046C36.681 10.729 36.0998 11.2685 35.5323 11.8227C35.1524 11.4542 34.7657 11.0929 34.3726 10.7389C28.0513 5.05942 21.7152 2.66573 17.9106 4.89451C14.2621 7.0317 13.1818 13.3771 14.7174 21.3177C14.8702 22.1042 15.0427 22.8865 15.2347 23.6641C14.3379 23.922 13.4724 24.1965 12.6442 24.4886C5.23293 27.1034 0.5 31.201 0.5 35.4513C0.5 39.8411 5.58102 44.2441 13.3002 46.9139C13.926 47.1295 14.557 47.3292 15.1926 47.513C14.9862 48.3504 14.8029 49.1936 14.643 50.0414C13.179 57.8442 14.3223 64.0397 17.9609 66.1633C21.719 68.3564 28.0267 66.1025 34.1684 60.6695C34.6664 60.2279 35.1534 59.7737 35.6291 59.3074C36.2436 59.9074 36.8746 60.49 37.5212 61.0544C43.4707 66.2347 49.3463 68.3265 52.9814 66.1971C56.736 63.9976 57.9563 57.342 56.372 49.2445C56.2472 48.6102 56.1073 47.9789 55.9523 47.3514C56.3953 47.2186 56.83 47.0819 57.2539 46.9397C65.2787 44.2494 70.5 39.8997 70.5 35.4513C70.5 31.1855 65.6142 27.0603 58.0539 24.4267ZM56.3135 44.0676C55.9307 44.1957 55.538 44.3194 55.1377 44.4397C54.2518 41.6017 53.0563 38.584 51.5932 35.466C52.9893 32.4223 54.1389 29.4431 54.9999 26.6236C55.7161 26.8334 56.4109 27.0544 57.0808 27.2877C63.5585 29.5444 67.5097 32.8805 67.5097 35.4513C67.5097 38.1895 63.2424 41.7442 56.3135 44.0676ZM53.4386 49.8322C54.1391 53.4127 54.2389 56.65 53.7749 59.1809C53.3582 61.4551 52.5198 62.9711 51.483 63.5784C49.2771 64.8706 44.5595 63.1911 39.4717 58.7606C38.8702 58.2358 38.2833 57.6942 37.7116 57.1364C39.6841 54.9536 41.6553 52.416 43.5793 49.5976C46.9633 49.2938 50.1604 48.7968 53.0596 48.1187C53.1993 48.6868 53.3256 49.2581 53.4386 49.8322ZM24.3645 63.3551C22.2093 64.1252 20.4927 64.1473 19.455 63.5419C17.247 62.2533 16.329 57.2787 17.5811 50.6059C17.7299 49.8174 17.9003 49.0332 18.0921 48.2542C20.9594 48.8962 24.1332 49.3577 27.5252 49.6361C29.4622 52.3939 31.4903 54.9287 33.5343 57.1483C33.0999 57.5736 32.6552 57.9881 32.2007 58.3912C29.4846 60.7935 26.7631 62.4979 24.3645 63.3551ZM14.2676 44.0507C10.8543 42.87 8.03539 41.3358 6.10328 39.6615C4.36695 38.1571 3.49059 36.6632 3.49059 35.4513C3.49059 32.872 7.29055 29.582 13.6286 27.3461C14.3977 27.0749 15.2027 26.819 16.0381 26.5788C16.9142 29.462 18.0632 32.4766 19.4498 35.5249C18.0451 38.6183 16.8797 41.6811 15.9952 44.5983C15.415 44.4301 14.8389 44.2475 14.2676 44.0507ZM17.6522 20.7364C16.3367 13.9333 17.2103 8.80144 19.409 7.51342C21.7507 6.14157 26.9291 8.09753 32.3872 13.0017C32.7431 13.3222 33.0933 13.6492 33.4375 13.9825C31.4036 16.1925 29.3941 18.7085 27.4743 21.45C24.1821 21.7588 21.0308 22.2546 18.1334 22.919C17.9549 22.1957 17.7945 21.4678 17.6522 20.7364ZM47.8471 28.2813C47.1627 27.0851 46.453 25.904 45.7184 24.7388C47.9518 25.0246 50.0917 25.404 52.1012 25.8677C51.498 27.8245 50.7461 29.8701 49.8609 31.9674C49.214 30.7253 48.5425 29.4963 47.8471 28.2813ZM35.5336 16.1452C36.9129 17.6573 38.2943 19.3454 39.653 21.1772C36.8967 21.0454 34.1359 21.0449 31.3796 21.1755C32.7396 19.3607 34.1328 17.6748 35.5336 16.1452ZM23.1412 28.3021C22.4544 29.5073 21.7955 30.7286 21.165 31.9649C20.2944 29.8751 19.5493 27.8201 18.9409 25.8356C20.9381 25.3835 23.0679 25.0138 25.2871 24.7332C24.5443 25.9056 23.8288 27.0957 23.1412 28.3021ZM25.3508 46.3846C23.058 46.1256 20.8962 45.7751 18.8996 45.3351C19.5176 43.3152 20.2791 41.2165 21.1686 39.0818C21.8016 40.3191 22.4632 41.5411 23.1529 42.7469C23.8622 43.9865 24.5967 45.2006 25.3508 46.3846ZM35.6162 54.9705C34.1987 53.4232 32.785 51.7113 31.4045 49.8701C32.7448 49.9233 34.1112 49.9504 35.5 49.9504C36.9268 49.9504 38.3372 49.918 39.7254 49.8555C38.3623 51.7298 36.9861 53.4442 35.6162 54.9705ZM49.8891 38.9728C50.8248 41.131 51.6134 43.2187 52.2396 45.204C50.2101 45.6727 48.0188 46.0501 45.7099 46.3304C46.4497 45.1435 47.1662 43.9419 47.8588 42.7262C48.563 41.4904 49.2399 40.239 49.8891 38.9728ZM45.2686 41.2143C44.2082 43.0782 43.0883 44.9068 41.9105 46.697C39.777 46.8499 37.6388 46.9259 35.5 46.9247C33.3215 46.9247 31.2027 46.8561 29.1623 46.7222C27.9537 44.9361 26.8124 43.1043 25.7407 41.2309C24.6741 39.3674 23.6781 37.4636 22.7543 35.5235C23.6757 33.583 24.669 31.6783 25.732 29.8134L25.7317 29.8136C26.7943 27.9482 27.9265 26.1243 29.1259 24.3459C31.2076 24.1865 33.3423 24.1035 35.4997 24.1035C37.667 24.1035 39.8047 24.1873 41.8859 24.3478C43.0731 26.1236 44.1981 27.9412 45.2587 29.7973C46.3252 31.6581 47.3316 33.5536 48.2764 35.4806C47.3414 37.4274 46.3381 39.3398 45.2686 41.2143ZM51.4373 7.42322C53.7812 8.7912 54.6928 14.3077 53.2201 21.5419C53.1261 22.0034 53.0205 22.4735 52.9057 22.9502C50.0012 22.2718 46.8477 21.7674 43.5459 21.4539C41.6225 18.6822 39.6295 16.1623 37.6287 13.9809C38.1531 13.4694 38.6899 12.9712 39.2387 12.4867C44.4067 7.93594 49.2367 6.13908 51.4373 7.42322ZM35.5 29.1261C38.9521 29.1261 41.7508 31.958 41.7508 35.4513C41.7508 38.9446 38.9521 41.7765 35.5 41.7765C32.0479 41.7765 29.2492 38.9446 29.2492 35.4513C29.2492 31.958 32.0479 29.1261 35.5 29.1261Z" fill="url(#paint0_linear_10_158)"/>
<defs>
<linearGradient id="paint0_linear_10_158" x1="35.5" y1="4" x2="35.5" y2="67.0219" gradientUnits="userSpaceOnUse">
<stop stop-color="#21A2DC"/>
<stop offset="1" stop-color="#B221E3"/>
</linearGradient>
</defs>
</svg>
