<svg width="71" height="72" viewBox="0 0 71 72" fill="none" xmlns="http://www.w3.org/2000/svg">
<g clip-path="url(#clip0_10_208)">
<path d="M35 10C25.5334 10 19.6166 15.8001 17.25 27.4C20.8 21.5999 24.9416 19.4249 29.675 20.875C32.3755 21.7022 34.3058 24.1032 36.4425 26.7604C39.9231 31.0897 43.9513 36.1 52.75 36.1C62.2166 36.1 68.1334 30.2999 70.5 18.7C66.95 24.5001 62.8084 26.6751 58.075 25.225C55.3745 24.3978 53.4442 21.9968 51.3075 19.3396C47.8269 15.0103 43.7987 10 35 10ZM17.25 36.1C7.78343 36.1 1.86657 41.9001 -0.5 53.5C3.05 47.6999 7.19157 45.5249 11.925 46.975C14.6255 47.8022 16.5558 50.2032 18.6925 52.8604C22.1731 57.1897 26.2013 62.2 35 62.2C44.4666 62.2 50.3834 56.3999 52.75 44.8C49.2 50.6001 45.0584 52.7751 40.325 51.325C37.6245 50.4978 35.6942 48.0968 33.5575 45.4396C30.0769 41.1103 26.0487 36.1 17.25 36.1Z" fill="url(#paint0_linear_10_208)"/>
</g>
<defs>
<linearGradient id="paint0_linear_10_208" x1="35" y1="10" x2="35" y2="62.2" gradientUnits="userSpaceOnUse">
<stop stop-color="#21A2DC"/>
<stop offset="1" stop-color="#B221E3"/>
</linearGradient>
<clipPath id="clip0_10_208">
<rect width="71" height="71" fill="white" transform="translate(0 0.5)"/>
</clipPath>
</defs>
</svg>
