<svg width="1033" height="484" viewBox="0 0 1033 484" fill="none" xmlns="http://www.w3.org/2000/svg">
<path d="M0 436C0 452.802 0 461.202 3.2698 467.62C6.14601 473.265 10.7354 477.854 16.3803 480.73C22.7976 484 31.1984 484 48 484H947.941C975.769 484 989.683 484 997.614 478.166C1004.53 473.079 1008.93 465.274 1009.71 456.725C1010.61 446.92 1003.42 435.009 989.03 411.187L802.599 102.463C798.067 94.9591 795.801 91.2068 792.739 88.353C790.028 85.8253 786.871 83.8221 783.429 82.4449C779.543 80.8899 775.183 80.4375 766.464 79.5327L52.9541 5.49483C34.6121 3.59155 25.4411 2.63992 18.3489 5.62894C12.1195 8.25434 6.95939 12.9067 3.70506 18.8319C0 25.5777 0 34.798 0 53.2385V436Z" fill="url(#paint0_linear_100_302)"/>
<mask id="mask0_100_302" style="mask-type:alpha" maskUnits="userSpaceOnUse" x="0" y="3" width="988" height="481">
<path d="M0 438.558C0 452.536 0 459.525 2.28361 465.039C5.32843 472.389 11.1687 478.23 18.5195 481.274C24.0326 483.558 31.0218 483.558 45 483.558H931.126C954.04 483.558 965.497 483.558 972.484 479.5C981.8 474.09 987.5 464.1 987.417 453.327C987.355 445.248 981.525 435.385 969.865 415.66L784.153 101.483C780.406 95.144 778.532 91.9742 776.098 89.4475C772.853 86.0785 768.865 83.515 764.453 81.9619C761.143 80.7971 757.482 80.4089 750.159 79.6326L49.7438 5.38321C34.4598 3.76297 26.8179 2.95288 20.7486 4.92041C12.6563 7.54376 6.05818 13.4794 2.59636 21.2501C0 27.0781 0 34.7629 0 50.1325V438.558Z" fill="#0081FE"/>
</mask>
<g mask="url(#mask0_100_302)">
<g opacity="0.6">
<g opacity="0.2">
<path d="M565.813 434.012C550.232 423.857 536.483 411.856 525.484 398.008C540.149 393.392 553.898 386.93 565.813 379.544C581.854 369.389 595.602 356.926 606.601 342.617C613.934 347.232 622.183 350.925 631.807 353.695C644.181 356.926 658.846 358.772 676.261 358.772C770.21 358.772 786.25 305.689 786.25 227.218L786.25 34.7327L566.272 34.7327L566.272 172.288C566.272 236.45 553.898 283.532 499.362 298.765C495.237 300.15 490.196 301.073 485.613 301.996C483.78 290.456 483.322 278.455 483.322 266.453L483.322 -69.1262L870.116 -69.1262L870.116 266.453C870.116 371.235 808.247 463.093 676.719 463.093C631.349 463.093 594.686 452.015 565.813 434.012Z" fill="white"/>
</g>
<g opacity="0.4">
<path d="M454.908 407.879C481.031 407.879 504.403 404.186 525.485 397.724C540.15 393.108 553.898 386.645 565.814 379.26C581.854 369.105 595.603 356.642 606.601 342.332C617.142 329.407 625.391 314.636 631.807 298.942C642.806 272.17 648.306 242.628 648.306 211.701L648.306 34.4482L566.272 34.4482L566.272 172.004C566.272 236.165 553.898 283.248 499.362 298.481C495.238 299.865 490.196 300.789 485.614 301.712C476.448 303.097 466.365 304.02 454.908 304.02C360.959 304.02 344.919 250.936 344.919 172.465L344.919 34.4482L482.864 34.4482L482.864 -69.4106L261.511 -69.4106L261.511 211.701C261.511 316.021 323.38 407.879 454.908 407.879Z" fill="white"/>
</g>
</g>
</g>
<defs>
<linearGradient id="paint0_linear_100_302" x1="8.68672e-06" y1="423.77" x2="939.494" y2="346.295" gradientUnits="userSpaceOnUse">
<stop stop-color="#21A2DC"/>
<stop offset="1" stop-color="#B221E3"/>
</linearGradient>
</defs>
</svg>
