<svg width="95" height="96" viewBox="0 0 95 96" fill="none" xmlns="http://www.w3.org/2000/svg">
<g clip-path="url(#clip0_15_107)">
<path d="M40.1254 59.2112C40.1254 64.0512 36.952 67.558 30.5235 68.3097C25.9318 68.8097 19.1734 68.2246 15.9184 67.8063C15.8333 67.3063 15.6667 66.6396 15.6667 66.1396C15.6667 61.8812 17.9217 60.9629 20.0883 60.9629C22.3468 60.9629 25.8501 61.3812 28.4385 61.3812C31.2752 61.3812 32.1936 60.3778 32.1936 59.4595C32.1936 58.2078 31.0269 57.7078 28.7719 57.2895L22.7618 56.1228C17.67 55.1194 15 51.6161 15 47.9427C15 43.436 18.1734 39.5959 24.5168 38.9293C29.2718 38.4259 35.1153 39.0109 38.2887 39.3442C38.3703 39.9292 38.4553 40.4326 38.4553 41.0142C38.4553 45.2727 36.2003 46.191 34.1153 46.191C32.4453 46.191 29.9419 45.8543 27.0202 45.8543C24.0134 45.8543 22.8468 46.691 22.8468 47.691C22.8468 48.7794 24.0134 49.1944 25.8501 49.5277L31.6936 50.6161C37.6186 51.6161 40.1254 55.0378 40.1254 59.2112ZM50.6422 64.3846C50.6422 66.973 49.6388 68.4763 44.5471 68.4763C43.8804 68.4763 43.2954 68.3913 42.7104 68.3063V33.9191C42.7104 31.3342 43.6287 28.5791 48.7205 28.5791C49.3871 28.5791 50.0572 28.6607 50.6422 28.7458V64.3846ZM71.3391 77.7415C72.0092 78.0748 73.3459 78.4898 75.0975 78.5748C78.0192 78.6598 79.6042 77.4898 80.8559 74.9014L96.6311 39.6775C95.6063 39.2154 94.4999 38.961 93.3761 38.9293C91.3727 38.9293 88.6177 39.3442 86.866 43.436L81.7743 55.4562L71.7575 39.0959C71.0908 38.9258 69.5058 38.5925 68.3358 38.5925C64.8324 38.5925 62.8256 39.9292 60.7407 42.0993L50.9755 52.7827L58.8189 65.1362C60.2407 67.3913 62.159 68.558 65.2474 68.558C67.2507 68.558 69.0024 68.058 69.7541 67.7246L60.3223 53.4528L66.999 46.3577L78.0192 63.6363L71.3391 77.7415Z" fill="white"/>
</g>
<defs>
<clipPath id="clip0_15_107">
<rect width="95" height="95" fill="white" transform="translate(0 0.985352)"/>
</clipPath>
</defs>
</svg>
