<svg width="1433" height="750" viewBox="0 0 1433 750" fill="none" xmlns="http://www.w3.org/2000/svg">
<g opacity="0.1">
<path opacity="0.0144928" d="M1813.86 976.243C1823.85 978.542 1834.15 973.954 1839.13 964.992L1992.3 689.055C1995.25 683.755 1995.98 677.508 1994.34 671.672L1871.98 236.096C1870.69 231.506 1868.01 227.43 1864.3 224.433L1556.36 -24.6171C1549.64 -30.0527 1540.44 -31.2612 1532.55 -27.7455L1281.25 84.1369C1273.36 87.6526 1268.1 95.299 1267.64 103.931L1246.67 499.419C1246.42 504.18 1247.65 508.901 1250.2 512.93L1492.02 895.317C1495.26 900.441 1500.39 904.078 1506.3 905.438L1813.86 976.243Z" stroke="url(#paint0_linear_100_114)" stroke-width="4"/>
<path opacity="0.0289855" d="M1765.48 987.684C1775.31 990.48 1785.81 986.45 1791.25 977.793L1957.88 712.439C1961.11 707.298 1962.17 701.089 1960.84 695.166L1862.57 257.797C1861.52 253.132 1859.04 248.91 1855.48 245.717L1563.19 -16.4289C1556.76 -22.1927 1547.65 -23.8724 1539.59 -20.7788L1284.32 77.2109C1276.26 80.3045 1270.61 87.6506 1269.69 96.2341L1227.88 486.63C1227.38 491.385 1228.36 496.179 1230.7 500.348L1450.33 891.132C1453.31 896.424 1458.25 900.326 1464.09 901.986L1765.48 987.684Z" stroke="url(#paint1_linear_100_114)" stroke-width="4"/>
<path opacity="0.0434783" d="M1717.08 997.572C1726.73 1000.85 1737.39 997.39 1743.27 989.061L1922.67 734.937C1926.18 729.97 1927.58 723.817 1926.56 717.823L1852.22 279.979C1851.42 275.25 1849.16 270.891 1845.76 267.511L1569.63 -6.78415C1563.51 -12.86 1554.51 -15.005 1546.31 -12.3408L1287.82 71.648C1279.62 74.3121 1273.6 81.3379 1272.22 89.8485L1210.05 474.064C1209.29 478.799 1210.02 483.655 1212.15 487.952L1409.37 885.867C1412.07 891.315 1416.82 895.472 1422.57 897.429L1717.08 997.572Z" stroke="url(#paint2_linear_100_114)" stroke-width="4"/>
<path opacity="0.057971" d="M1668.75 1005.92C1678.2 1009.68 1688.99 1006.79 1695.29 998.808L1886.74 756.514C1890.52 751.737 1892.25 745.657 1891.55 739.609L1840.93 302.586C1840.37 297.807 1838.33 293.322 1835.1 289.762L1575.59 4.28276C1569.8 -2.0882 1560.94 -4.69119 1552.62 -2.46282L1291.67 67.4584C1283.36 69.6868 1276.98 76.3733 1275.15 84.7863L1193.15 461.77C1192.13 466.471 1192.61 471.375 1194.52 475.79L1369.19 879.573C1371.61 885.162 1376.14 889.563 1381.8 891.813L1668.75 1005.92Z" stroke="url(#paint3_linear_100_114)" stroke-width="4"/>
<path opacity="0.0724638" d="M1620.57 1012.75C1629.79 1016.97 1640.69 1014.65 1647.39 1007.05L1850.15 777.143C1854.18 772.569 1856.24 766.581 1855.86 760.494L1828.66 325.564C1828.36 320.748 1826.55 316.148 1823.49 312.416L1581.02 16.7331C1575.57 10.0846 1566.86 7.03218 1558.45 8.8198L1295.81 64.6476C1287.4 66.4352 1280.68 72.7644 1278.41 81.0556L1177.17 449.795C1175.89 454.449 1176.11 459.387 1177.79 463.91L1329.85 872.3C1331.98 878.015 1336.29 882.651 1341.83 885.189L1620.57 1012.75Z" stroke="url(#paint4_linear_100_114)" stroke-width="4"/>
<path opacity="0.0869565" d="M1572.63 1018.08C1581.6 1022.74 1592.56 1021.01 1599.65 1013.8L1812.94 796.795C1817.23 792.439 1819.6 786.559 1819.54 780.452L1815.41 348.858C1815.36 344.016 1813.79 339.313 1810.91 335.418L1585.83 30.5244C1580.74 23.6166 1572.21 20.1244 1563.73 21.4675L1300.14 63.2167C1291.66 64.5598 1284.63 70.5148 1281.92 78.6602L1162.07 438.184C1160.54 442.777 1160.5 447.736 1161.95 452.355L1291.39 864.103C1293.22 869.929 1297.3 874.788 1302.71 877.607L1572.63 1018.08Z" stroke="url(#paint5_linear_100_114)" stroke-width="4"/>
<path opacity="0.101449" d="M1525 1021.93C1533.69 1027.03 1544.7 1025.88 1552.14 1019.08L1775.18 815.448C1779.7 811.324 1782.39 805.57 1782.66 799.458L1801.16 372.411C1801.37 367.559 1800.04 362.764 1797.36 358.715L1589.97 45.6108C1585.23 38.4628 1576.91 34.5417 1568.39 35.4379L1304.6 63.1634C1296.07 64.0596 1288.75 69.6244 1285.6 77.6006L1147.84 426.981C1146.06 431.5 1145.75 436.466 1146.97 441.169L1253.86 855.037C1255.39 860.96 1259.21 866.029 1264.49 869.125L1525 1021.93Z" stroke="url(#paint6_linear_100_114)" stroke-width="4"/>
<path opacity="0.115942" d="M1477.76 1024.35C1486.16 1029.87 1497.17 1029.29 1504.95 1022.93L1736.93 833.083C1741.67 829.202 1744.67 823.591 1745.26 817.492L1785.91 396.168C1786.38 391.318 1785.29 386.444 1782.81 382.25L1593.35 61.9424C1588.99 54.5735 1580.9 50.2355 1572.35 50.6836L1309.1 64.4798C1300.55 64.9279 1292.96 70.0878 1289.39 77.872L1134.45 416.229C1132.42 420.66 1131.85 425.62 1132.82 430.395L1217.29 845.162C1218.52 851.165 1222.08 856.433 1227.2 859.796L1477.76 1024.35Z" stroke="url(#paint7_linear_100_114)" stroke-width="4"/>
<path opacity="0.130435" d="M1430.98 1025.36C1439.07 1031.28 1450.06 1031.28 1458.15 1025.36L1698.24 849.682C1703.19 846.058 1706.49 840.606 1707.4 834.537L1769.66 420.073C1770.38 415.238 1769.55 410.298 1767.28 405.968L1595.92 79.4666C1591.95 71.8969 1584.1 67.1552 1575.55 67.1552L1313.58 67.1552C1305.03 67.1552 1297.19 71.8969 1293.21 79.4667L1121.86 405.968C1119.58 410.298 1118.75 415.238 1119.48 420.073L1181.73 834.537C1182.65 840.606 1185.94 846.058 1190.9 849.682L1430.98 1025.36Z" stroke="url(#paint8_linear_100_114)" stroke-width="4"/>
<path opacity="0.144928" d="M1384.75 1025.01C1392.51 1031.32 1403.44 1031.89 1411.81 1026.43L1659.17 865.233C1664.32 861.877 1667.91 856.6 1669.14 850.578L1752.4 444.07C1753.38 439.264 1752.8 434.27 1750.75 429.815L1597.62 98.1275C1594.04 90.3772 1586.47 85.246 1577.94 84.7993L1317.96 71.1742C1309.44 70.7274 1301.36 75.0386 1297 82.3724L1110.04 396.237C1107.53 400.452 1106.43 405.359 1106.91 410.242L1147.21 823.225C1147.81 829.343 1150.83 834.966 1155.6 838.842L1384.75 1025.01Z" stroke="url(#paint9_linear_100_114)" stroke-width="4"/>
<path opacity="0.15942" d="M1339.13 1023.34C1346.53 1030.01 1357.38 1031.15 1366.01 1026.17L1619.78 879.726C1625.11 876.649 1628.99 871.562 1630.54 865.605L1734.13 468.104C1735.37 463.341 1735.05 458.304 1733.22 453.736L1598.4 117.866C1595.22 109.956 1587.93 104.451 1579.46 103.56L1322.17 76.5177C1313.69 75.6268 1305.42 79.4965 1300.67 86.5733L1098.96 387.073C1096.22 391.16 1094.86 396.02 1095.08 400.938L1113.76 811.29C1114.04 817.44 1116.78 823.221 1121.35 827.339L1339.13 1023.34Z" stroke="url(#paint10_linear_100_114)" stroke-width="4"/>
<path opacity="0.173913" d="M1294.18 1020.4C1301.22 1027.4 1311.96 1029.11 1320.81 1024.62L1580.13 893.153C1585.63 890.365 1589.78 885.485 1591.65 879.608L1714.86 492.118C1716.36 487.411 1716.3 482.347 1714.7 477.675L1598.2 138.62C1595.43 130.572 1588.45 124.709 1580.04 123.377L1326.14 83.1621C1317.73 81.8309 1309.28 85.2495 1304.16 92.0492L1088.59 378.51C1085.62 382.457 1084 387.255 1083.97 392.195L1081.41 798.794C1081.37 804.961 1083.81 810.884 1088.18 815.236L1294.18 1020.4Z" stroke="url(#paint11_linear_100_114)" stroke-width="4"/>
<path opacity="0.188406" d="M1249.97 1016.23C1256.63 1023.56 1267.22 1025.81 1276.28 1021.82L1540.28 905.513C1545.94 903.023 1550.35 898.364 1552.53 892.585L1694.6 516.06C1696.35 511.422 1696.56 506.342 1695.19 501.579L1596.97 160.327C1594.62 152.162 1587.96 145.958 1579.65 144.191L1329.79 91.0816C1321.48 89.315 1312.87 92.2742 1307.41 98.7777L1078.88 370.58C1075.69 374.374 1073.82 379.097 1073.53 384.046L1050.17 785.806C1049.81 791.972 1051.95 798.023 1056.1 802.597L1249.97 1016.23Z" stroke="url(#paint12_linear_100_114)" stroke-width="4"/>
<path opacity="0.202899" d="M1206.57 1010.89C1212.82 1018.52 1223.24 1021.31 1232.47 1017.83L1500.29 916.805C1506.08 914.621 1510.75 910.197 1513.23 904.532L1673.36 539.874C1675.36 535.319 1675.83 530.238 1674.7 525.393L1594.68 182.92C1592.75 174.66 1586.43 168.133 1578.24 165.937L1333.07 100.245C1324.88 98.0498 1316.14 100.543 1310.34 106.731L1069.81 363.313C1066.41 366.943 1064.27 371.577 1063.73 376.522L1020.07 772.39C1019.39 778.539 1021.22 784.703 1025.14 789.489L1206.57 1010.89Z" stroke="url(#paint13_linear_100_114)" stroke-width="4"/>
<path opacity="0.217391" d="M1164.02 1004.43C1169.86 1012.34 1180.08 1015.67 1189.46 1012.7L1460.22 927.031C1466.13 925.162 1471.03 920.987 1473.82 915.452L1651.15 563.508C1653.4 559.049 1654.13 553.98 1653.25 549.067L1591.28 206.332C1589.78 197.998 1583.81 191.166 1575.76 188.549L1335.92 110.62C1327.86 108.003 1319.02 110.024 1312.9 115.881L1061.32 356.738C1057.71 360.191 1055.33 364.724 1054.52 369.652L991.122 758.614C990.125 764.731 991.639 770.991 995.32 775.977L1164.02 1004.43Z" stroke="url(#paint14_linear_100_114)" stroke-width="4"/>
<path opacity="0.231884" d="M1122.37 996.924C1127.79 1005.09 1137.79 1008.93 1147.28 1006.48L1420.12 936.199C1426.13 934.651 1431.26 930.737 1434.34 925.349L1627.99 586.911C1630.48 582.561 1631.48 577.518 1630.84 572.547L1586.74 230.492C1585.66 222.106 1580.07 214.99 1572.17 211.96L1338.26 122.169C1330.36 119.139 1321.45 120.684 1315.03 126.192L1053.38 350.88C1049.58 354.145 1046.95 358.562 1045.88 363.46L963.334 744.545C962.02 750.613 963.214 756.954 966.646 762.127L1122.37 996.924Z" stroke="url(#paint15_linear_100_114)" stroke-width="4"/>
<path opacity="0.246377" d="M1081.69 988.419C1086.67 996.82 1096.42 1001.16 1105.99 999.239L1380.05 944.318C1386.15 943.096 1391.49 939.457 1394.86 934.23L1603.9 610.031C1606.63 605.804 1607.89 600.799 1607.5 595.784L1581.02 255.329C1580.37 246.914 1575.16 239.533 1567.45 236.1L1340.04 134.852C1332.33 131.419 1323.36 132.485 1316.67 137.629L1045.94 345.762C1041.96 348.828 1039.08 353.117 1037.77 357.971L936.715 730.252C935.086 736.253 935.957 742.659 939.129 748.008L1081.69 988.419Z" stroke="url(#paint16_linear_100_114)" stroke-width="4"/>
<path opacity="0.26087" d="M1042.01 978.983C1046.55 987.595 1056.02 992.418 1065.65 991.026L1340.06 951.399C1346.23 950.509 1351.77 947.155 1355.42 942.106L1578.9 632.821C1581.86 628.728 1583.38 623.776 1583.25 618.728L1574.11 280.771C1573.88 272.349 1569.06 264.725 1561.56 260.9L1341.21 148.627C1333.7 144.802 1324.7 145.388 1317.76 150.154L1038.97 341.405C1034.81 344.261 1031.7 348.409 1030.13 353.207L911.268 715.8C909.327 721.72 909.871 728.174 912.775 733.685L1042.01 978.983Z" stroke="url(#paint17_linear_100_114)" stroke-width="4"/>
<path opacity="0.275362" d="M1003.38 968.682C1007.46 977.48 1016.62 982.77 1026.28 981.908L1300.22 957.459C1306.43 956.904 1312.16 953.847 1316.07 948.989L1553.01 655.231C1556.19 651.286 1557.98 646.4 1558.1 641.332L1565.97 306.745C1566.16 298.337 1561.76 290.491 1554.47 286.286L1341.71 163.447C1334.43 159.242 1325.43 159.348 1318.25 163.723L1032.42 337.827C1028.09 340.464 1024.75 344.457 1022.92 349.185L886.991 701.258C884.744 707.08 884.958 713.565 887.586 719.226L1003.38 968.682Z" stroke="url(#paint18_linear_100_114)" stroke-width="4"/>
<path opacity="0.289855" d="M965.826 957.583C969.449 966.542 978.286 972.281 987.944 971.947L1260.56 962.514C1266.81 962.298 1272.7 959.548 1276.88 954.896L1526.27 677.217C1529.67 673.431 1531.71 668.624 1532.09 663.549L1556.58 333.177C1557.2 324.805 1553.21 316.76 1546.17 312.187L1341.49 179.266C1334.45 174.694 1325.48 174.321 1318.08 178.293L1026.24 335.043C1021.75 337.451 1018.2 341.278 1016.12 345.924L863.881 686.692C861.331 692.4 861.215 698.9 863.558 704.696L965.826 957.583Z" stroke="url(#paint19_linear_100_114)" stroke-width="4"/>
<path opacity="0.304348" d="M929.389 945.755C932.546 954.851 941.034 961.018 950.66 961.21L1221.15 966.587C1227.42 966.711 1233.46 964.276 1237.88 959.845L1498.69 698.734C1502.3 695.12 1504.61 690.406 1505.24 685.336L1545.95 359.993C1546.99 351.678 1543.42 343.456 1536.64 338.53L1340.51 196.033C1333.73 191.107 1324.81 190.259 1317.23 193.818L1020.39 333.068C1015.76 335.238 1011.99 338.886 1009.67 343.437L841.93 672.167C839.083 677.746 838.635 684.245 840.688 690.162L929.389 945.755Z" stroke="url(#paint20_linear_100_114)" stroke-width="4"/>
<path opacity="0.318841" d="M894.095 933.267C896.781 942.475 904.9 949.05 914.466 949.763L1182.04 969.699C1188.29 970.165 1194.47 968.055 1199.13 963.857L1470.32 719.741C1474.13 716.309 1476.69 711.701 1477.58 706.649L1534.04 387.118C1535.5 378.882 1532.37 370.505 1525.87 365.241L1338.73 213.695C1332.23 208.432 1323.38 207.112 1315.63 210.248L1014.82 331.912C1010.06 333.835 1006.09 337.293 1003.52 341.736L821.123 657.75C817.987 663.184 817.207 669.664 818.964 675.687L894.095 933.267Z" stroke="url(#paint21_linear_100_114)" stroke-width="4"/>
<path opacity="0.333333" d="M859.97 920.19C862.182 929.487 869.912 936.447 879.389 937.675L1143.26 971.878C1149.5 972.686 1155.79 970.907 1160.68 966.955L1441.18 740.196C1445.19 736.958 1447.99 732.469 1449.14 727.448L1520.87 414.478C1522.74 406.341 1520.05 397.833 1513.84 392.247L1336.09 232.199C1329.89 226.613 1321.14 224.827 1313.25 227.532L1009.49 331.583C1004.62 333.252 1000.45 336.509 997.644 340.831L801.448 643.502C798.029 648.777 796.917 655.222 798.373 661.337L859.97 920.19Z" stroke="url(#paint22_linear_100_114)" stroke-width="4"/>
<path opacity="0.347826" d="M827.034 906.597C828.77 915.956 836.093 923.278 845.452 925.015L1104.88 973.15C1111.07 974.299 1117.46 972.858 1122.56 969.164L1411.32 760.062C1415.51 757.028 1418.55 752.671 1419.96 747.693L1506.43 441.998C1508.7 433.982 1506.45 425.366 1500.56 419.475L1332.57 251.488C1326.68 245.597 1318.07 243.352 1310.05 245.619L1004.35 332.086C999.377 333.494 995.02 336.538 991.986 340.728L782.884 629.487C779.19 634.588 777.749 640.981 778.898 647.173L827.034 906.597Z" stroke="url(#paint23_linear_100_114)" stroke-width="4"/>
<path opacity="0.362319" d="M795.301 892.558C796.562 901.955 803.46 909.616 812.674 911.852L1066.92 973.547C1073.05 975.034 1079.53 973.938 1084.82 970.514L1380.77 779.303C1385.13 776.484 1388.41 772.271 1390.07 767.35L1490.72 469.606C1493.38 461.73 1491.58 453.03 1486.02 446.851L1328.14 271.505C1322.58 265.326 1314.11 262.631 1306 264.455L999.367 333.426C994.299 334.566 989.766 337.388 986.506 341.432L765.408 615.766C761.449 620.679 759.682 627.002 760.521 633.256L795.301 892.558Z" stroke="url(#paint24_linear_100_114)" stroke-width="4"/>
<path opacity="0.376812" d="M764.785 878.147C765.57 887.558 772.028 895.532 781.069 898.257L1029.44 973.1C1035.49 974.924 1042.03 974.177 1047.51 971.033L1349.56 797.886C1354.09 795.291 1357.6 791.235 1359.51 786.383L1473.75 497.229C1476.8 489.512 1475.45 480.752 1470.23 474.304L1322.76 292.191C1317.54 285.743 1309.25 282.607 1301.07 283.984L994.48 335.602C989.335 336.468 984.638 339.058 981.159 342.946L748.996 602.397C744.78 607.108 742.69 613.347 743.215 619.647L764.785 878.147Z" stroke="url(#paint25_linear_100_114)" stroke-width="4"/>
<path opacity="0.391304" d="M735.493 863.436C735.805 872.835 741.808 881.098 750.651 884.299L992.467 971.845C998.423 974.002 1005 973.606 1010.66 970.753L1317.75 815.779C1322.43 813.418 1326.16 809.53 1328.33 804.76L1455.53 524.794C1458.95 517.256 1458.06 508.459 1453.2 501.761L1316.41 313.487C1311.54 306.788 1303.45 303.223 1295.22 304.15L989.651 338.614C984.444 339.201 979.593 341.549 975.902 345.269L733.618 589.438C729.156 593.934 726.746 600.071 726.957 606.402L735.493 863.436Z" stroke="url(#paint26_linear_100_114)" stroke-width="4"/>
<path opacity="0.405797" d="M707.428 848.497C707.27 857.861 712.806 866.385 721.424 870.05L956.048 969.818C961.888 972.302 968.495 972.262 974.305 969.708L1285.37 832.954C1290.18 830.835 1294.13 827.128 1296.55 822.451L1436.08 552.232C1439.87 544.892 1439.43 536.082 1434.93 529.153L1309.06 335.331C1304.56 328.402 1296.69 324.419 1288.44 324.896L984.834 342.457C979.579 342.761 974.587 344.858 970.692 348.398L719.241 576.944C714.545 581.213 711.821 587.232 711.714 593.578L707.428 848.497Z" stroke="url(#paint27_linear_100_114)" stroke-width="4"/>
<path opacity="0.42029" d="M680.588 833.401C679.966 842.705 685.023 851.465 693.392 855.578L920.214 967.057C925.921 969.861 932.535 970.178 938.484 967.932L1252.46 849.384C1257.41 847.516 1261.56 844.001 1264.22 839.43L1415.41 579.474C1419.56 572.349 1419.57 563.55 1415.45 556.411L1300.7 357.663C1296.58 350.524 1288.95 346.137 1280.71 346.164L979.985 347.125C974.698 347.142 969.577 348.98 965.486 352.33L705.832 564.968C700.913 568.997 697.88 574.883 697.456 581.228L680.588 833.401Z" stroke="url(#paint28_linear_100_114)" stroke-width="4"/>
<path opacity="0.434783" d="M654.97 818.22C653.888 827.441 658.457 836.408 666.553 840.953L884.999 963.6C890.555 966.719 897.156 967.394 903.228 965.464L1219.08 865.047C1224.14 863.437 1228.49 860.125 1231.39 855.673L1393.56 606.453C1398.05 599.56 1398.51 590.795 1394.78 583.467L1291.32 380.422C1287.59 373.094 1280.22 368.317 1272.01 367.894L975.062 352.609C969.757 352.336 964.521 353.907 960.243 357.057L693.352 553.56C688.222 557.338 684.888 563.075 684.146 569.403L654.97 818.22Z" stroke="url(#paint29_linear_100_114)" stroke-width="4"/>
<path opacity="0.449275" d="M630.563 803.022C629.03 812.137 633.103 821.285 640.902 826.245L850.432 959.49C855.819 962.915 862.388 963.948 868.567 962.34L1185.26 879.921C1190.42 878.577 1194.96 875.478 1198.09 871.156L1370.54 633.104C1375.36 626.458 1376.27 617.752 1372.93 610.255L1280.9 403.545C1277.56 396.048 1270.48 390.898 1262.32 390.029L970.021 358.898C964.714 358.332 959.375 359.631 954.92 362.57L681.762 542.769C676.433 546.285 672.804 551.857 671.745 558.153L630.563 803.022Z" stroke="url(#paint30_linear_100_114)" stroke-width="4"/>
<path opacity="0.463768" d="M607.355 787.877C605.379 796.864 608.949 806.164 616.431 811.52L816.541 954.767C821.743 958.491 828.261 959.88 834.529 958.6L1151.06 893.988C1156.31 892.916 1161.03 890.04 1164.39 885.86L1346.4 659.363C1351.53 652.982 1352.88 644.356 1349.94 636.713L1269.43 426.97C1266.49 419.327 1259.72 413.82 1251.64 412.509L964.821 365.979C959.528 365.12 954.1 366.138 949.478 368.857L671.018 532.639C665.503 535.883 661.589 541.276 660.215 547.524L607.355 787.877Z" stroke="url(#paint31_linear_100_114)" stroke-width="4"/>
<path opacity="0.478261" d="M585.33 772.853C582.92 781.689 585.982 791.113 593.125 796.844L783.35 949.476C788.35 953.488 794.797 955.231 801.138 954.285L1116.51 907.233C1121.84 906.438 1126.73 903.796 1130.31 899.769L1321.15 685.17C1326.58 679.067 1328.36 670.545 1325.84 662.778L1256.91 450.636C1254.39 442.869 1247.93 437.023 1239.96 435.276L959.422 373.837C954.158 372.684 948.656 373.416 943.876 375.905L661.074 523.214C655.389 526.175 651.197 531.375 649.51 537.56L585.33 772.853Z" stroke="url(#paint32_linear_100_114)" stroke-width="4"/>
<path opacity="0.492754" d="M564.466 758.013C561.633 766.678 564.183 776.197 570.969 782.284L750.883 943.66C755.665 947.949 762.022 950.043 768.417 949.435L1081.68 919.643C1087.07 919.131 1092.11 916.732 1095.91 912.869L1294.85 710.466C1300.56 704.656 1302.77 696.259 1300.66 688.391L1243.34 474.482C1241.23 466.613 1235.12 460.447 1227.27 458.271L953.784 382.454C948.565 381.007 943.003 381.448 938.077 383.7L651.886 514.532C646.043 517.203 641.584 522.195 639.587 528.301L564.466 758.013Z" stroke="url(#paint33_linear_100_114)" stroke-width="4"/>
<path opacity="0.507246" d="M544.74 743.423C541.495 751.895 543.533 761.482 549.943 767.902L719.157 937.364C723.706 941.919 729.955 944.36 736.387 944.093L1046.61 931.209C1052.05 930.983 1057.23 928.835 1061.23 925.148L1267.52 735.196C1273.5 729.692 1276.13 721.443 1274.44 713.495L1228.73 498.447C1227.04 490.5 1221.28 484.033 1213.58 481.436L947.869 391.811C942.711 390.071 937.104 390.217 932.043 392.223L643.402 506.631C637.417 509.003 632.701 513.774 630.398 519.786L544.74 743.423Z" stroke="url(#paint34_linear_100_114)" stroke-width="4"/>
<path opacity="0.521739" d="M526.124 729.144C522.48 737.403 524.005 747.03 530.022 753.759L688.192 930.634C692.492 935.443 698.614 938.225 705.065 938.301L1011.34 941.922C1016.81 941.987 1022.13 940.099 1026.33 936.597L1239.22 759.308C1245.45 754.122 1248.48 746.041 1247.22 738.036L1213.07 522.473C1211.81 514.468 1206.42 507.722 1198.89 504.714L941.641 401.887C936.561 399.856 930.922 399.703 925.739 401.456L635.572 499.544C629.461 501.61 624.498 506.147 621.895 512.049L526.124 729.144Z" stroke="url(#paint35_linear_100_114)" stroke-width="4"/>
<path opacity="0.536232" d="M508.586 715.236C504.558 723.264 505.571 732.902 511.18 739.916L658 923.515C662.037 928.564 668.013 931.681 674.465 932.102L975.928 951.779C981.416 952.137 986.851 950.517 991.248 947.211L1209.98 782.751C1216.44 777.894 1219.88 770.002 1219.04 761.963L1196.39 546.499C1195.54 538.461 1190.54 531.456 1183.21 528.048L935.064 412.659C930.076 410.34 924.423 409.885 919.129 411.377L628.345 493.301C622.122 495.054 616.925 499.345 614.025 505.124L508.586 715.236Z" stroke="url(#paint36_linear_100_114)" stroke-width="4"/>
<path opacity="0.550725" d="M492.094 701.755C487.696 709.533 488.2 719.155 493.387 726.43L628.593 916.054C632.354 921.33 638.166 924.774 644.599 925.54L940.419 960.778C945.91 961.432 951.452 960.086 956.032 956.986L1179.87 805.479C1186.54 800.961 1190.36 793.278 1189.94 785.228L1178.69 570.469C1178.27 562.42 1173.66 555.179 1166.55 551.383L928.104 424.103C923.226 421.499 917.573 420.74 912.181 421.964L621.665 487.93C615.347 489.365 609.927 493.397 606.738 499.037L492.094 701.755Z" stroke="url(#paint37_linear_100_114)" stroke-width="4"/>
<path opacity="0.565217" d="M476.61 688.757C471.857 696.268 471.857 705.845 476.61 713.356L599.98 908.297C603.452 913.784 609.082 917.547 615.479 918.658L904.862 968.919C910.34 969.871 915.977 968.806 920.73 965.921L1148.92 827.448C1155.79 823.278 1159.98 815.823 1159.98 807.785V594.327C1159.98 586.289 1155.79 578.835 1148.92 574.665L920.73 436.191C915.977 433.307 910.34 432.242 904.862 433.193L615.479 483.454C609.082 484.565 603.452 488.329 599.98 493.815L476.61 688.757Z" stroke="url(#paint38_linear_100_114)" stroke-width="4"/>
<path opacity="0.57971" d="M462.095 676.292C457.003 683.52 456.505 693.026 460.813 700.746L572.167 900.29C575.338 905.973 580.768 910.046 587.111 911.501L869.306 976.208C874.755 977.458 880.473 976.679 885.39 974.019L1117.19 848.618C1124.24 844.805 1128.79 837.596 1129.21 829.593L1140.3 618.019C1140.72 610.015 1136.94 602.37 1130.33 597.84L912.911 448.897C908.298 445.737 902.693 444.366 897.143 445.039L609.73 479.894C603.27 480.678 597.444 484.161 593.697 489.481L462.095 676.292Z" stroke="url(#paint39_linear_100_114)" stroke-width="4"/>
<path opacity="0.594203" d="M448.505 664.411C443.092 671.34 442.103 680.748 445.957 688.651L545.157 892.08C548.016 897.942 553.229 902.315 559.499 904.11L833.797 982.65C839.202 984.197 844.987 983.712 850.059 981.284L1084.73 868.953C1091.94 865.503 1096.84 858.559 1097.68 850.611L1119.66 641.49C1120.49 633.543 1117.14 625.732 1110.81 620.858L904.618 462.19C900.162 458.762 894.604 457.084 888.995 457.474L604.362 477.267C597.856 477.72 591.848 480.913 587.833 486.053L448.505 664.411Z" stroke="url(#paint40_linear_100_114)" stroke-width="4"/>
<path opacity="0.608696" d="M435.796 653.159C430.08 659.775 428.61 669.06 432.001 677.118L518.953 883.711C521.488 889.736 526.468 894.397 532.647 896.53L798.383 988.254C803.729 990.099 809.567 989.91 814.782 987.723L1051.61 888.419C1058.96 885.338 1064.19 878.675 1065.43 870.806L1098.08 664.692C1099.33 656.823 1096.41 648.87 1090.38 643.67L895.824 476.041C891.54 472.35 886.046 470.367 880.392 470.47L599.318 475.587C592.782 475.706 586.606 478.6 582.332 483.547L435.796 653.159Z" stroke="url(#paint41_linear_100_114)" stroke-width="4"/>
<path opacity="0.623188" d="M423.921 642.58C417.92 648.869 415.978 658.004 418.902 666.191L493.55 875.23C495.754 881.4 500.484 886.338 506.554 888.803L763.11 993.032C768.38 995.173 774.256 995.285 779.604 993.347L1017.88 906.987C1025.34 904.281 1030.89 897.914 1032.54 890.145L1075.59 687.575C1077.25 679.806 1074.77 671.736 1069.05 666.226L886.505 490.419C882.407 486.473 876.993 484.185 871.308 483.997L594.539 474.864C587.991 474.648 581.662 477.235 577.139 481.975L423.921 642.58Z" stroke="url(#paint42_linear_100_114)" stroke-width="4"/>
<path opacity="0.637681" d="M412.83 632.712C406.564 638.663 404.163 647.624 406.614 655.911L468.947 866.68C470.809 872.978 475.274 878.179 481.217 880.972L728.022 996.997C733.201 999.432 739.101 999.849 744.571 998.166L983.591 924.63C991.158 922.303 996.995 916.247 999.044 908.6L1052.23 710.092C1054.28 702.445 1052.26 694.282 1046.87 688.482L876.637 505.288C872.741 501.096 867.423 498.507 861.721 498.026L589.969 475.104C583.425 474.552 576.958 476.824 572.196 481.346L412.83 632.712Z" stroke="url(#paint43_linear_100_114)" stroke-width="4"/>
<path opacity="0.652174" d="M402.473 623.592C395.961 629.194 393.114 637.957 395.089 646.317L445.135 858.107C446.648 864.513 450.834 869.963 456.632 873.078L693.164 1000.17C698.236 1002.89 704.145 1003.62 709.725 1002.2L948.813 941.328C956.46 939.381 962.575 933.65 965.013 926.146L1028.03 732.198C1030.47 724.694 1028.89 716.464 1023.85 710.394L866.199 520.618C862.52 516.189 857.314 513.301 851.609 512.525L585.549 476.312C579.027 475.424 572.438 477.374 567.448 481.666L402.473 623.592Z" stroke="url(#paint44_linear_100_114)" stroke-width="4"/>
<path opacity="0.666667" d="M392.797 615.254C386.06 620.496 382.78 629.039 384.279 637.444L422.106 849.552C423.264 856.048 427.156 861.733 432.792 865.162L658.579 1002.56C663.528 1005.57 669.431 1006.61 675.109 1005.45L913.604 957.06C921.311 955.496 927.685 950.103 930.503 942.762L1003.02 753.853C1005.84 746.512 1004.71 738.239 1000.03 731.92L855.173 536.372C851.724 531.717 846.646 528.534 840.953 527.461L581.223 478.487C574.739 477.265 568.043 478.885 562.836 482.937L392.797 615.254Z" stroke="url(#paint45_linear_100_114)" stroke-width="4"/>
<path opacity="0.681159" d="M383.748 607.727C376.806 612.601 373.11 620.902 374.133 629.323L399.849 841.059C400.646 847.624 404.231 853.528 409.688 857.264L624.307 1004.2C629.118 1007.49 635 1008.84 640.764 1007.96L878.025 971.812C885.772 970.632 892.385 965.589 895.573 958.43L977.233 775.017C980.421 767.858 979.744 759.568 975.437 753.021L843.54 552.516C840.336 547.645 835.402 544.172 829.735 542.801L576.932 481.627C570.504 480.071 563.718 481.358 558.306 485.158L383.748 607.727Z" stroke="url(#paint46_linear_100_114)" stroke-width="4"/>
<path opacity="0.695652" d="M375.27 601.037C368.144 605.536 364.049 613.573 364.598 621.983L378.349 832.667C378.781 839.282 382.046 845.389 387.307 849.422L590.389 1005.11C595.046 1008.68 600.892 1010.33 606.73 1009.73L842.138 985.574C849.905 984.777 856.738 980.094 860.283 973.136L950.716 795.652C954.261 788.694 954.034 780.414 950.113 773.661L831.287 569.013C828.34 563.938 823.565 560.181 817.939 558.512L572.621 485.723C566.266 483.838 559.406 484.786 553.8 488.325L375.27 601.037Z" stroke="url(#paint47_linear_100_114)" stroke-width="4"/>
<path opacity="0.710145" d="M367.308 595.206C360.019 599.324 355.542 607.077 355.621 615.449L357.592 824.417C357.655 831.062 360.589 837.355 365.638 841.675L556.863 1005.3C561.351 1009.15 567.146 1011.11 573.045 1010.8L806.004 998.338C813.772 997.923 820.804 993.609 824.694 986.871L923.506 815.725C927.395 808.987 927.616 800.74 924.091 793.805L818.401 585.827C815.724 580.561 811.124 576.526 805.554 574.559L568.234 490.768C561.968 488.556 555.051 489.161 549.265 492.43L367.308 595.206Z" stroke="url(#paint48_linear_100_114)" stroke-width="4"/>
<path opacity="0.724638" d="M359.804 590.254C352.373 593.985 347.534 601.437 347.148 609.743L337.56 816.346C337.251 823.001 339.842 829.462 344.663 834.059L523.766 1004.82C528.07 1008.93 533.797 1011.21 539.745 1011.18L769.685 1010.1C777.435 1010.06 784.645 1006.13 788.866 999.628L895.645 835.204C899.866 828.704 900.53 820.515 897.41 813.421L804.869 602.922C802.476 597.478 798.066 593.172 792.566 590.909L563.716 496.747C557.556 494.212 550.599 494.473 544.645 497.462L359.804 590.254Z" stroke="url(#paint49_linear_100_114)" stroke-width="4"/>
<path opacity="0.73913" d="M352.701 586.197C345.149 589.537 339.967 596.669 339.125 604.883L318.232 808.492C317.55 815.135 319.789 821.747 324.367 826.608L491.132 1003.69C495.238 1008.05 500.882 1010.64 506.865 1010.9L733.242 1020.86C740.954 1021.2 748.323 1017.65 752.86 1011.4L867.177 854.061C871.714 847.815 872.816 839.71 870.11 832.48L790.685 620.261C788.585 614.652 784.381 610.083 778.966 607.525L559.014 503.645C552.976 500.793 545.996 500.707 539.889 503.408L352.701 586.197Z" stroke="url(#paint50_linear_100_114)" stroke-width="4"/>
<path opacity="0.753623" d="M345.941 583.045C338.29 585.992 332.787 592.788 331.495 600.884L299.587 800.89C298.532 807.501 300.41 814.244 304.731 819.357L458.995 1001.95C462.888 1006.55 468.434 1009.45 474.44 1010L696.736 1030.63C704.392 1031.34 711.897 1028.17 716.735 1022.2L838.146 872.27C842.984 866.295 844.517 858.297 842.231 850.956L775.84 637.805C774.046 632.047 770.063 627.223 764.747 624.374L554.075 511.443C548.175 508.28 541.19 507.845 534.942 510.251L345.941 583.045Z" stroke="url(#paint51_linear_100_114)" stroke-width="4"/>
<path opacity="0.768116" d="M339.466 580.807C331.738 583.359 325.934 589.805 324.203 597.757L281.602 793.574C280.176 800.132 281.685 806.986 285.733 812.338L427.386 999.61C431.051 1004.46 436.484 1007.65 442.499 1008.51L660.228 1039.4C667.809 1040.48 675.428 1037.71 680.551 1032.02L808.597 889.81C813.721 884.119 815.677 876.253 813.814 868.826L760.331 655.519C758.853 649.626 755.105 644.558 749.903 641.419L548.85 520.118C543.103 516.651 536.129 515.866 529.756 517.971L339.466 580.807Z" stroke="url(#paint52_linear_100_114)" stroke-width="4"/>
<path opacity="0.782609" d="M333.218 579.487C325.434 581.644 319.351 587.726 317.195 595.511L264.253 786.574C262.456 793.058 263.589 800.004 267.352 805.581L396.334 996.724C399.757 1001.8 405.061 1005.3 411.072 1006.45L623.775 1047.2C631.263 1048.63 638.975 1046.26 644.366 1040.87L778.578 906.659C783.969 901.268 786.338 893.556 784.904 886.068L744.155 673.365C743.003 667.354 739.504 662.05 734.431 658.627L543.288 529.645C537.711 525.882 530.765 524.749 524.281 526.546L333.218 579.487Z" stroke="url(#paint53_linear_100_114)" stroke-width="4"/>
<path opacity="0.797101" d="M327.139 579.088C319.32 580.85 312.983 586.556 310.413 594.148L247.512 779.922C245.349 786.311 246.099 793.328 249.565 799.115L365.865 993.32C369.033 998.611 374.193 1002.41 380.186 1003.86L587.436 1054.03C594.814 1055.81 602.597 1053.84 608.238 1048.77L748.135 922.801C753.776 917.722 756.547 910.188 755.543 902.664L727.311 691.305C726.495 685.193 723.258 679.665 718.328 675.961L537.344 539.998C531.951 535.946 525.051 534.466 518.471 535.95L327.139 579.088Z" stroke="url(#paint54_linear_100_114)" stroke-width="4"/>
<path opacity="0.811594" d="M321.173 579.605C313.341 580.976 306.772 586.295 303.802 593.672L231.352 773.646C228.826 779.919 229.19 786.986 232.345 792.968L336.005 989.438C338.904 994.934 343.905 999.023 349.867 1000.77L551.268 1059.91C558.517 1062.04 566.35 1060.47 572.222 1055.72L717.315 938.224C723.187 933.469 726.349 926.133 725.774 918.599L709.801 709.304C709.329 703.108 706.369 697.367 701.596 693.388L530.971 551.146C525.776 546.815 518.939 544.99 512.278 546.156L321.173 579.605Z" stroke="url(#paint55_linear_100_114)" stroke-width="4"/>
<path opacity="0.826087" d="M315.263 581.034C307.438 582.017 300.662 586.94 297.309 594.079L215.743 767.771C212.861 773.908 212.834 781.004 215.669 787.164L306.775 985.114C309.393 990.804 314.219 995.179 320.137 997.23L515.324 1064.87C522.43 1067.33 530.29 1066.17 536.374 1061.75L686.166 952.915C692.25 948.495 695.788 941.38 695.642 933.861L691.629 727.325C691.507 721.063 688.837 715.122 684.235 710.873L524.126 563.056C519.145 558.457 512.387 556.29 505.66 557.134L315.263 581.034Z" stroke="url(#paint56_linear_100_114)" stroke-width="4"/>
<path opacity="0.84058" d="M309.355 583.366C301.557 583.964 294.597 588.483 290.879 595.364L200.656 762.322C197.424 768.303 197.004 775.407 199.507 781.727L278.196 980.388C280.521 986.259 285.157 990.915 291.017 993.266L479.659 1068.93C486.604 1071.71 494.471 1070.95 500.747 1066.87L654.735 966.868C661.011 962.793 664.912 955.918 665.192 948.44L672.8 745.333C673.036 739.024 670.668 732.894 666.251 728.383L516.77 575.694C512.014 570.836 505.354 568.331 498.576 568.851L309.355 583.366Z" stroke="url(#paint57_linear_100_114)" stroke-width="4"/>
<path opacity="0.855072" d="M303.392 586.587C295.642 586.806 288.524 590.916 284.459 597.518L186.06 757.321C182.486 763.125 181.67 770.215 183.833 776.678L250.285 975.301C252.305 981.338 256.737 986.268 262.526 988.917L444.323 1072.11C451.094 1075.21 458.945 1074.84 465.393 1071.11L623.07 980.078C629.519 976.355 633.766 969.741 634.468 962.329L653.32 763.292C653.921 756.954 651.867 750.651 647.648 745.883L508.863 589.022C504.346 583.918 497.799 581.079 490.986 581.272L303.392 586.587Z" stroke="url(#paint58_linear_100_114)" stroke-width="4"/>
<path opacity="0.869565" d="M297.324 590.682C289.641 590.53 282.389 594.225 277.997 600.53L171.921 752.789C168.015 758.396 166.804 765.449 168.617 772.038L223.059 969.892C224.762 976.082 228.976 981.279 234.68 984.225L409.366 1074.45C415.947 1077.85 423.762 1077.87 430.362 1074.5L591.219 992.543C597.819 989.18 602.395 982.845 603.514 975.523L633.201 781.169C634.17 774.822 632.442 768.359 628.435 763.342L500.369 603.002C496.104 597.663 489.686 594.496 482.854 594.361L297.324 590.682Z" stroke="url(#paint59_linear_100_114)" stroke-width="4"/>
<path opacity="0.884058" d="M291.099 595.634C283.502 595.117 276.141 598.394 271.442 604.385L158.208 748.742C153.979 754.133 152.374 761.129 153.83 767.824L196.53 964.203C197.906 970.531 201.886 975.986 207.493 979.228L374.834 1075.97C381.212 1079.66 388.97 1080.07 395.7 1077.07L559.227 1004.26C565.958 1001.27 570.845 995.229 572.373 988.022L612.451 798.929C613.794 792.593 612.403 785.985 608.621 780.728L491.255 617.593C487.253 612.031 480.981 608.543 474.145 608.078L291.099 595.634Z" stroke="url(#paint60_linear_100_114)" stroke-width="4"/>
<path opacity="0.898551" d="M284.666 601.419C277.173 600.547 269.729 603.404 264.745 609.066L144.887 745.198C140.347 750.354 138.35 757.27 139.442 764.052L170.708 958.275C171.746 964.727 175.48 970.431 180.976 973.966L340.772 1076.72C346.934 1080.68 354.615 1081.47 361.454 1078.85L527.142 1015.25C533.982 1012.62 539.161 1006.89 541.089 999.826L591.084 816.54C592.804 810.236 591.761 803.498 588.216 798.009L481.49 632.752C477.763 626.981 471.652 623.178 464.828 622.384L284.666 601.419Z" stroke="url(#paint61_linear_100_114)" stroke-width="4"/>
<path opacity="0.913043" d="M277.978 608.013C270.608 606.796 263.105 609.233 257.858 614.551L131.924 742.169C127.086 747.072 124.7 753.885 125.422 760.735L145.602 952.152C146.293 958.71 149.766 964.655 155.138 968.479L307.221 1076.73C313.155 1080.95 320.739 1082.12 327.666 1079.87L495.008 1025.49C501.935 1023.24 507.387 1017.84 509.705 1010.94L569.115 833.97C571.213 827.719 570.528 820.867 567.233 815.156L471.047 648.435C467.605 642.469 461.669 638.359 454.873 637.236L277.978 608.013Z" stroke="url(#paint62_linear_100_114)" stroke-width="4"/>
<path opacity="0.927536" d="M270.99 615.391C263.759 613.838 256.222 615.857 250.736 620.817L249.395 619.334L250.736 620.817L119.285 739.667C114.162 744.299 111.391 750.988 111.739 757.886L121.217 945.876C121.552 952.523 124.751 958.699 129.986 962.809L274.222 1076.04C279.917 1080.51 287.384 1082.04 294.377 1080.17L462.87 1035.02C469.863 1033.14 475.565 1028.09 478.262 1021.37L546.559 851.188C549.037 845.011 548.719 838.064 545.686 832.14L459.899 664.597C456.752 658.449 451.008 654.042 444.255 652.592L270.99 615.391L271.41 613.435L270.99 615.391Z" stroke="url(#paint63_linear_100_114)" stroke-width="4"/>
<path opacity="0.942029" d="M263.657 623.52C256.581 621.645 249.036 623.248 243.335 627.84L106.935 737.702C101.541 742.046 98.3925 748.589 98.3622 755.514L97.5575 939.488C97.5281 946.207 100.439 952.603 105.524 956.995L241.81 1074.69C247.256 1079.4 254.588 1081.28 261.625 1079.78L430.77 1043.83C437.807 1042.33 443.739 1037.63 446.801 1031.12L523.433 868.166C526.292 862.085 526.35 855.058 523.59 848.932L448.026 681.191C445.182 674.877 439.644 670.18 432.95 668.406L263.657 623.52Z" stroke="url(#paint64_linear_100_114)" stroke-width="4"/>
<path opacity="0.956522" d="M255.938 632.371C249.034 630.184 241.503 631.377 235.612 635.59L94.8392 736.281C89.1915 740.321 85.6711 746.695 85.2602 753.627L74.6234 933.031C74.2217 939.804 76.8319 946.41 81.7554 951.08L210.02 1072.73C215.206 1077.65 222.385 1079.88 229.445 1078.76L398.751 1051.95C405.811 1050.83 411.95 1046.49 415.363 1040.21L499.756 884.875C502.996 878.912 503.437 871.823 500.962 865.505L435.407 698.169C432.874 691.704 427.556 686.729 420.937 684.632L255.938 632.371Z" stroke="url(#paint65_linear_100_114)" stroke-width="4"/>
<path opacity="0.971014" d="M247.794 641.908C241.076 639.424 233.584 640.211 227.529 644.038L82.9637 735.409C77.0784 739.128 73.1948 745.314 72.4016 752.231L52.4132 926.547C51.6323 933.357 53.9294 940.16 58.6785 945.102L178.881 1070.2C183.8 1075.32 190.809 1077.88 197.87 1077.14L366.853 1059.38C373.914 1058.64 380.237 1054.68 383.984 1048.65L475.55 901.288C479.167 895.466 480 888.333 477.82 881.835L422.026 715.484C419.812 708.883 414.727 703.64 408.197 701.225L247.794 641.908Z" stroke="url(#paint66_linear_100_114)" stroke-width="4"/>
<path opacity="0.985507" d="M239.19 652.095C232.671 649.327 225.24 649.716 219.047 653.151L71.2742 735.088C65.169 738.473 60.9317 744.448 59.756 751.329L30.9235 920.078C29.7571 926.905 31.7289 933.894 36.2914 939.104L148.421 1067.15C153.066 1072.46 159.888 1075.34 166.929 1074.97L335.115 1066.16C342.156 1065.79 348.638 1062.21 352.703 1056.45L450.834 917.379C454.827 911.72 456.058 904.563 454.184 897.896L407.87 733.085C405.982 726.365 401.143 720.866 394.718 718.137L239.19 652.095Z" stroke="url(#paint67_linear_100_114)" stroke-width="4"/>
<path d="M230.09 662.894C223.784 659.857 216.438 659.857 210.131 662.894L59.736 735.32C53.4297 738.357 48.8495 744.101 47.292 750.925L10.1474 913.665C8.5899 920.489 10.2245 927.651 14.5886 933.124L118.665 1063.63C123.029 1069.1 129.648 1072.29 136.648 1072.29H303.574C310.573 1072.29 317.192 1069.1 321.556 1063.63L425.632 933.124C429.997 927.651 431.631 920.489 430.074 913.665L392.929 750.925C391.372 744.101 386.791 738.357 380.485 735.32L230.09 662.894Z" stroke="url(#paint68_linear_100_114)" stroke-width="4"/>
</g>
<defs>
<linearGradient id="paint0_linear_100_114" x1="1831.74" y1="982.413" x2="1367.12" y2="-61.1559" gradientUnits="userSpaceOnUse">
<stop stop-color="#FF1CF7"/>
<stop offset="1" stop-color="#00F0FF"/>
</linearGradient>
<linearGradient id="paint1_linear_100_114" x1="1782.97" y1="994.737" x2="1377.21" y2="-62.3057" gradientUnits="userSpaceOnUse">
<stop stop-color="#FF1CF7"/>
<stop offset="1" stop-color="#00F0FF"/>
</linearGradient>
<linearGradient id="paint2_linear_100_114" x1="1734.13" y1="1005.48" x2="1387.36" y2="-61.7584" gradientUnits="userSpaceOnUse">
<stop stop-color="#FF1CF7"/>
<stop offset="1" stop-color="#00F0FF"/>
</linearGradient>
<linearGradient id="paint3_linear_100_114" x1="1685.32" y1="1014.66" x2="1397.49" y2="-59.5266" gradientUnits="userSpaceOnUse">
<stop stop-color="#FF1CF7"/>
<stop offset="1" stop-color="#00F0FF"/>
</linearGradient>
<linearGradient id="paint4_linear_100_114" x1="1636.62" y1="1022.29" x2="1407.5" y2="-55.628" gradientUnits="userSpaceOnUse">
<stop stop-color="#FF1CF7"/>
<stop offset="1" stop-color="#00F0FF"/>
</linearGradient>
<linearGradient id="paint5_linear_100_114" x1="1588.11" y1="1028.39" x2="1417.3" y2="-50.0853" gradientUnits="userSpaceOnUse">
<stop stop-color="#FF1CF7"/>
<stop offset="1" stop-color="#00F0FF"/>
</linearGradient>
<linearGradient id="paint6_linear_100_114" x1="1539.88" y1="1032.98" x2="1426.8" y2="-42.9253" gradientUnits="userSpaceOnUse">
<stop stop-color="#FF1CF7"/>
<stop offset="1" stop-color="#00F0FF"/>
</linearGradient>
<linearGradient id="paint7_linear_100_114" x1="1492.01" y1="1036.1" x2="1435.92" y2="-34.1806" gradientUnits="userSpaceOnUse">
<stop stop-color="#FF1CF7"/>
<stop offset="1" stop-color="#00F0FF"/>
</linearGradient>
<linearGradient id="paint8_linear_100_114" x1="1444.57" y1="1037.78" x2="1444.57" y2="-23.8875" gradientUnits="userSpaceOnUse">
<stop stop-color="#FF1CF7"/>
<stop offset="1" stop-color="#00F0FF"/>
</linearGradient>
<linearGradient id="paint9_linear_100_114" x1="1397.64" y1="1038.06" x2="1452.67" y2="-12.0867" gradientUnits="userSpaceOnUse">
<stop stop-color="#FF1CF7"/>
<stop offset="1" stop-color="#00F0FF"/>
</linearGradient>
<linearGradient id="paint10_linear_100_114" x1="1351.29" y1="1036.98" x2="1460.15" y2="1.17683" gradientUnits="userSpaceOnUse">
<stop stop-color="#FF1CF7"/>
<stop offset="1" stop-color="#00F0FF"/>
</linearGradient>
<linearGradient id="paint11_linear_100_114" x1="1305.59" y1="1034.58" x2="1466.94" y2="15.8537" gradientUnits="userSpaceOnUse">
<stop stop-color="#FF1CF7"/>
<stop offset="1" stop-color="#00F0FF"/>
</linearGradient>
<linearGradient id="paint12_linear_100_114" x1="1260.6" y1="1030.91" x2="1472.95" y2="31.8918" gradientUnits="userSpaceOnUse">
<stop stop-color="#FF1CF7"/>
<stop offset="1" stop-color="#00F0FF"/>
</linearGradient>
<linearGradient id="paint13_linear_100_114" x1="1216.39" y1="1026.03" x2="1478.13" y2="49.2347" gradientUnits="userSpaceOnUse">
<stop stop-color="#FF1CF7"/>
<stop offset="1" stop-color="#00F0FF"/>
</linearGradient>
<linearGradient id="paint14_linear_100_114" x1="1173.02" y1="1020" x2="1482.4" y2="67.8235" gradientUnits="userSpaceOnUse">
<stop stop-color="#FF1CF7"/>
<stop offset="1" stop-color="#00F0FF"/>
</linearGradient>
<linearGradient id="paint15_linear_100_114" x1="1130.54" y1="1012.86" x2="1485.72" y2="87.5951" gradientUnits="userSpaceOnUse">
<stop stop-color="#FF1CF7"/>
<stop offset="1" stop-color="#00F0FF"/>
</linearGradient>
<linearGradient id="paint16_linear_100_114" x1="1089.01" y1="1004.68" x2="1488.02" y2="108.485" gradientUnits="userSpaceOnUse">
<stop stop-color="#FF1CF7"/>
<stop offset="1" stop-color="#00F0FF"/>
</linearGradient>
<linearGradient id="paint17_linear_100_114" x1="1048.47" y1="995.528" x2="1489.26" y2="130.425" gradientUnits="userSpaceOnUse">
<stop stop-color="#FF1CF7"/>
<stop offset="1" stop-color="#00F0FF"/>
</linearGradient>
<linearGradient id="paint18_linear_100_114" x1="1008.96" y1="985.462" x2="1489.38" y2="153.345" gradientUnits="userSpaceOnUse">
<stop stop-color="#FF1CF7"/>
<stop offset="1" stop-color="#00F0FF"/>
</linearGradient>
<linearGradient id="paint19_linear_100_114" x1="970.53" y1="974.55" x2="1488.35" y2="177.173" gradientUnits="userSpaceOnUse">
<stop stop-color="#FF1CF7"/>
<stop offset="1" stop-color="#00F0FF"/>
</linearGradient>
<linearGradient id="paint20_linear_100_114" x1="933.209" y1="962.863" x2="1486.13" y2="201.836" gradientUnits="userSpaceOnUse">
<stop stop-color="#FF1CF7"/>
<stop offset="1" stop-color="#00F0FF"/>
</linearGradient>
<linearGradient id="paint21_linear_100_114" x1="897.03" y1="950.469" x2="1482.67" y2="227.258" gradientUnits="userSpaceOnUse">
<stop stop-color="#FF1CF7"/>
<stop offset="1" stop-color="#00F0FF"/>
</linearGradient>
<linearGradient id="paint22_linear_100_114" x1="862.019" y1="937.44" x2="1477.97" y2="253.363" gradientUnits="userSpaceOnUse">
<stop stop-color="#FF1CF7"/>
<stop offset="1" stop-color="#00F0FF"/>
</linearGradient>
<linearGradient id="paint23_linear_100_114" x1="828.2" y1="923.848" x2="1471.97" y2="280.074" gradientUnits="userSpaceOnUse">
<stop stop-color="#FF1CF7"/>
<stop offset="1" stop-color="#00F0FF"/>
</linearGradient>
<linearGradient id="paint24_linear_100_114" x1="795.592" y1="909.765" x2="1464.68" y2="307.312" gradientUnits="userSpaceOnUse">
<stop stop-color="#FF1CF7"/>
<stop offset="1" stop-color="#00F0FF"/>
</linearGradient>
<linearGradient id="paint25_linear_100_114" x1="764.206" y1="895.264" x2="1456.08" y2="334.999" gradientUnits="userSpaceOnUse">
<stop stop-color="#FF1CF7"/>
<stop offset="1" stop-color="#00F0FF"/>
</linearGradient>
<linearGradient id="paint26_linear_100_114" x1="734.056" y1="880.418" x2="1446.14" y2="363.057" gradientUnits="userSpaceOnUse">
<stop stop-color="#FF1CF7"/>
<stop offset="1" stop-color="#00F0FF"/>
</linearGradient>
<linearGradient id="paint27_linear_100_114" x1="705.145" y1="865.3" x2="1434.88" y2="391.407" gradientUnits="userSpaceOnUse">
<stop stop-color="#FF1CF7"/>
<stop offset="1" stop-color="#00F0FF"/>
</linearGradient>
<linearGradient id="paint28_linear_100_114" x1="677.474" y1="849.983" x2="1422.28" y2="419.972" gradientUnits="userSpaceOnUse">
<stop stop-color="#FF1CF7"/>
<stop offset="1" stop-color="#00F0FF"/>
</linearGradient>
<linearGradient id="paint29_linear_100_114" x1="651.042" y1="834.539" x2="1408.34" y2="448.674" gradientUnits="userSpaceOnUse">
<stop stop-color="#FF1CF7"/>
<stop offset="1" stop-color="#00F0FF"/>
</linearGradient>
<linearGradient id="paint30_linear_100_114" x1="625.841" y1="819.037" x2="1393.09" y2="477.436" gradientUnits="userSpaceOnUse">
<stop stop-color="#FF1CF7"/>
<stop offset="1" stop-color="#00F0FF"/>
</linearGradient>
<linearGradient id="paint31_linear_100_114" x1="601.861" y1="803.55" x2="1376.52" y2="506.185" gradientUnits="userSpaceOnUse">
<stop stop-color="#FF1CF7"/>
<stop offset="1" stop-color="#00F0FF"/>
</linearGradient>
<linearGradient id="paint32_linear_100_114" x1="579.086" y1="788.144" x2="1358.66" y2="534.845" gradientUnits="userSpaceOnUse">
<stop stop-color="#FF1CF7"/>
<stop offset="1" stop-color="#00F0FF"/>
</linearGradient>
<linearGradient id="paint33_linear_100_114" x1="557.498" y1="772.887" x2="1339.52" y2="563.344" gradientUnits="userSpaceOnUse">
<stop stop-color="#FF1CF7"/>
<stop offset="1" stop-color="#00F0FF"/>
</linearGradient>
<linearGradient id="paint34_linear_100_114" x1="537.074" y1="757.845" x2="1319.13" y2="591.613" gradientUnits="userSpaceOnUse">
<stop stop-color="#FF1CF7"/>
<stop offset="1" stop-color="#00F0FF"/>
</linearGradient>
<linearGradient id="paint35_linear_100_114" x1="517.79" y1="743.081" x2="1297.52" y2="619.584" gradientUnits="userSpaceOnUse">
<stop stop-color="#FF1CF7"/>
<stop offset="1" stop-color="#00F0FF"/>
</linearGradient>
<linearGradient id="paint36_linear_100_114" x1="499.614" y1="728.655" x2="1274.71" y2="647.19" gradientUnits="userSpaceOnUse">
<stop stop-color="#FF1CF7"/>
<stop offset="1" stop-color="#00F0FF"/>
</linearGradient>
<linearGradient id="paint37_linear_100_114" x1="482.516" y1="714.629" x2="1250.74" y2="674.367" gradientUnits="userSpaceOnUse">
<stop stop-color="#FF1CF7"/>
<stop offset="1" stop-color="#00F0FF"/>
</linearGradient>
<linearGradient id="paint38_linear_100_114" x1="466.46" y1="701.056" x2="1225.66" y2="701.056" gradientUnits="userSpaceOnUse">
<stop stop-color="#FF1CF7"/>
<stop offset="1" stop-color="#00F0FF"/>
</linearGradient>
<linearGradient id="paint39_linear_100_114" x1="451.406" y1="687.993" x2="1199.5" y2="727.198" gradientUnits="userSpaceOnUse">
<stop stop-color="#FF1CF7"/>
<stop offset="1" stop-color="#00F0FF"/>
</linearGradient>
<linearGradient id="paint40_linear_100_114" x1="437.313" y1="675.489" x2="1172.3" y2="752.739" gradientUnits="userSpaceOnUse">
<stop stop-color="#FF1CF7"/>
<stop offset="1" stop-color="#00F0FF"/>
</linearGradient>
<linearGradient id="paint41_linear_100_114" x1="424.139" y1="663.593" x2="1144.12" y2="777.626" gradientUnits="userSpaceOnUse">
<stop stop-color="#FF1CF7"/>
<stop offset="1" stop-color="#00F0FF"/>
</linearGradient>
<linearGradient id="paint42_linear_100_114" x1="411.836" y1="652.35" x2="1115" y2="801.811" gradientUnits="userSpaceOnUse">
<stop stop-color="#FF1CF7"/>
<stop offset="1" stop-color="#00F0FF"/>
</linearGradient>
<linearGradient id="paint43_linear_100_114" x1="400.355" y1="641.802" x2="1084.99" y2="825.249" gradientUnits="userSpaceOnUse">
<stop stop-color="#FF1CF7"/>
<stop offset="1" stop-color="#00F0FF"/>
</linearGradient>
<linearGradient id="paint44_linear_100_114" x1="389.648" y1="631.987" x2="1054.16" y2="847.899" gradientUnits="userSpaceOnUse">
<stop stop-color="#FF1CF7"/>
<stop offset="1" stop-color="#00F0FF"/>
</linearGradient>
<linearGradient id="paint45_linear_100_114" x1="379.661" y1="622.941" x2="1022.55" y2="869.722" gradientUnits="userSpaceOnUse">
<stop stop-color="#FF1CF7"/>
<stop offset="1" stop-color="#00F0FF"/>
</linearGradient>
<linearGradient id="paint46_linear_100_114" x1="370.342" y1="614.696" x2="990.22" y2="890.684" gradientUnits="userSpaceOnUse">
<stop stop-color="#FF1CF7"/>
<stop offset="1" stop-color="#00F0FF"/>
</linearGradient>
<linearGradient id="paint47_linear_100_114" x1="361.634" y1="607.281" x2="957.235" y2="910.754" gradientUnits="userSpaceOnUse">
<stop stop-color="#FF1CF7"/>
<stop offset="1" stop-color="#00F0FF"/>
</linearGradient>
<linearGradient id="paint48_linear_100_114" x1="353.482" y1="600.719" x2="923.652" y2="929.907" gradientUnits="userSpaceOnUse">
<stop stop-color="#FF1CF7"/>
<stop offset="1" stop-color="#00F0FF"/>
</linearGradient>
<linearGradient id="paint49_linear_100_114" x1="345.829" y1="595.033" x2="889.534" y2="948.119" gradientUnits="userSpaceOnUse">
<stop stop-color="#FF1CF7"/>
<stop offset="1" stop-color="#00F0FF"/>
</linearGradient>
<linearGradient id="paint50_linear_100_114" x1="338.617" y1="590.239" x2="854.941" y2="965.37" gradientUnits="userSpaceOnUse">
<stop stop-color="#FF1CF7"/>
<stop offset="1" stop-color="#00F0FF"/>
</linearGradient>
<linearGradient id="paint51_linear_100_114" x1="331.788" y1="586.353" x2="819.936" y2="981.647" gradientUnits="userSpaceOnUse">
<stop stop-color="#FF1CF7"/>
<stop offset="1" stop-color="#00F0FF"/>
</linearGradient>
<linearGradient id="paint52_linear_100_114" x1="325.284" y1="583.384" x2="784.582" y2="996.938" gradientUnits="userSpaceOnUse">
<stop stop-color="#FF1CF7"/>
<stop offset="1" stop-color="#00F0FF"/>
</linearGradient>
<linearGradient id="paint53_linear_100_114" x1="319.046" y1="581.339" x2="748.942" y2="1011.23" gradientUnits="userSpaceOnUse">
<stop stop-color="#FF1CF7"/>
<stop offset="1" stop-color="#00F0FF"/>
</linearGradient>
<linearGradient id="paint54_linear_100_114" x1="313.017" y1="580.221" x2="713.078" y2="1024.53" gradientUnits="userSpaceOnUse">
<stop stop-color="#FF1CF7"/>
<stop offset="1" stop-color="#00F0FF"/>
</linearGradient>
<linearGradient id="paint55_linear_100_114" x1="307.138" y1="580.031" x2="677.052" y2="1036.84" gradientUnits="userSpaceOnUse">
<stop stop-color="#FF1CF7"/>
<stop offset="1" stop-color="#00F0FF"/>
</linearGradient>
<linearGradient id="paint56_linear_100_114" x1="301.352" y1="580.765" x2="640.926" y2="1048.15" gradientUnits="userSpaceOnUse">
<stop stop-color="#FF1CF7"/>
<stop offset="1" stop-color="#00F0FF"/>
</linearGradient>
<linearGradient id="paint57_linear_100_114" x1="295.603" y1="582.415" x2="604.76" y2="1058.47" gradientUnits="userSpaceOnUse">
<stop stop-color="#FF1CF7"/>
<stop offset="1" stop-color="#00F0FF"/>
</linearGradient>
<linearGradient id="paint58_linear_100_114" x1="289.837" y1="584.97" x2="568.613" y2="1067.82" gradientUnits="userSpaceOnUse">
<stop stop-color="#FF1CF7"/>
<stop offset="1" stop-color="#00F0FF"/>
</linearGradient>
<linearGradient id="paint59_linear_100_114" x1="283.998" y1="588.418" x2="532.544" y2="1076.22" gradientUnits="userSpaceOnUse">
<stop stop-color="#FF1CF7"/>
<stop offset="1" stop-color="#00F0FF"/>
</linearGradient>
<linearGradient id="paint60_linear_100_114" x1="278.034" y1="592.741" x2="496.609" y2="1083.67" gradientUnits="userSpaceOnUse">
<stop stop-color="#FF1CF7"/>
<stop offset="1" stop-color="#00F0FF"/>
</linearGradient>
<linearGradient id="paint61_linear_100_114" x1="271.894" y1="597.919" x2="460.864" y2="1090.2" gradientUnits="userSpaceOnUse">
<stop stop-color="#FF1CF7"/>
<stop offset="1" stop-color="#00F0FF"/>
</linearGradient>
<linearGradient id="paint62_linear_100_114" x1="265.529" y1="603.93" x2="425.36" y2="1095.84" gradientUnits="userSpaceOnUse">
<stop stop-color="#FF1CF7"/>
<stop offset="1" stop-color="#00F0FF"/>
</linearGradient>
<linearGradient id="paint63_linear_100_114" x1="258.892" y1="610.747" x2="390.15" y2="1100.61" gradientUnits="userSpaceOnUse">
<stop stop-color="#FF1CF7"/>
<stop offset="1" stop-color="#00F0FF"/>
</linearGradient>
<linearGradient id="paint64_linear_100_114" x1="251.937" y1="618.344" x2="355.281" y2="1104.54" gradientUnits="userSpaceOnUse">
<stop stop-color="#FF1CF7"/>
<stop offset="1" stop-color="#00F0FF"/>
</linearGradient>
<linearGradient id="paint65_linear_100_114" x1="244.62" y1="626.688" x2="320.8" y2="1107.67" gradientUnits="userSpaceOnUse">
<stop stop-color="#FF1CF7"/>
<stop offset="1" stop-color="#00F0FF"/>
</linearGradient>
<linearGradient id="paint66_linear_100_114" x1="236.902" y1="635.748" x2="286.751" y2="1110.03" gradientUnits="userSpaceOnUse">
<stop stop-color="#FF1CF7"/>
<stop offset="1" stop-color="#00F0FF"/>
</linearGradient>
<linearGradient id="paint67_linear_100_114" x1="228.744" y1="645.487" x2="253.175" y2="1111.66" gradientUnits="userSpaceOnUse">
<stop stop-color="#FF1CF7"/>
<stop offset="1" stop-color="#00F0FF"/>
</linearGradient>
<linearGradient id="paint68_linear_100_114" x1="220.111" y1="655.868" x2="220.111" y2="1112.6" gradientUnits="userSpaceOnUse">
<stop stop-color="#FF1CF7"/>
<stop offset="1" stop-color="#00F0FF"/>
</linearGradient>
</defs>
</svg>
